<svg width="48" height="29" viewBox="0 0 48 29" fill="none" xmlns="http://www.w3.org/2000/svg">
<mask id="path-1-outside-1_2_2" maskUnits="userSpaceOnUse" x="0" y="0" width="48" height="29" fill="black">
<rect fill="white" width="48" height="29"/>
<path d="M9.72 1.656L10.152 1.62H10.188C10.38 1.62 10.536 1.656 10.656 1.728C10.848 1.824 10.932 2.076 10.908 2.484C10.908 2.556 10.908 2.652 10.908 2.772C10.716 6.828 9.768 11.64 8.064 17.208C8.04 17.256 8.016 17.316 7.992 17.388C6.984 20.724 6.012 23.496 5.076 25.704C5.004 25.92 4.944 26.064 4.896 26.136C4.584 26.64 4.08 27.06 3.384 27.396C2.856 27.66 2.352 27.792 1.872 27.792C1.68 27.792 1.536 27.756 1.44 27.684C1.248 27.564 1.152 27.408 1.152 27.216C1.152 27.12 1.284 26.748 1.548 26.1C3.252 21.612 4.632 17.244 5.688 12.996C6.12 11.172 6.468 9.324 6.732 7.452C6.9 5.988 6.96 5.256 6.912 5.256C6.912 5.208 6.684 5.304 6.228 5.544C5.532 5.88 4.98 6.06 4.572 6.084C4.332 6.084 4.164 6.048 4.068 5.976C3.852 5.88 3.744 5.712 3.744 5.472C3.744 4.992 4.164 4.476 5.004 3.924C5.508 3.564 6.816 2.904 8.928 1.944C9.144 1.824 9.276 1.764 9.324 1.764C9.564 1.692 9.696 1.656 9.72 1.656ZM23.184 1.656H24.552C24.816 1.728 25.092 1.86 25.38 2.052C26.028 2.508 26.352 3.132 26.352 3.924C26.352 4.524 26.172 5.004 25.812 5.364C25.62 5.532 25.404 5.676 25.164 5.796C24.78 5.988 24.408 6.084 24.048 6.084C23.88 6.084 23.736 6.036 23.616 5.94C23.4 5.796 23.292 5.52 23.292 5.112C23.292 4.8 23.268 4.584 23.22 4.464C23.124 4.296 22.908 4.176 22.572 4.104C22.428 4.056 22.248 4.068 22.032 4.14C21.096 4.428 19.848 5.112 18.288 6.192C15.816 7.8 14.064 9.276 13.032 10.62C12.696 11.076 12.54 11.52 12.564 11.952C12.564 12.048 12.576 12.168 12.6 12.312C12.912 14.688 13.86 17.448 15.444 20.592C16.068 21.816 16.668 22.824 17.244 23.616C18.204 24.864 19.044 25.452 19.764 25.38C21.588 25.188 22.728 24.468 23.184 23.22C23.256 22.908 23.436 22.62 23.724 22.356C24.228 21.9 24.792 21.672 25.416 21.672C25.608 21.672 25.764 21.72 25.884 21.816C26.1 21.96 26.208 22.152 26.208 22.392C26.208 22.824 25.968 23.412 25.488 24.156C24.528 25.596 23.076 26.64 21.132 27.288C20.196 27.6 19.236 27.768 18.252 27.792C17.532 27.792 16.98 27.672 16.596 27.432C16.5 27.36 16.392 27.288 16.272 27.216C14.976 26.328 13.692 24.552 12.42 21.888C11.34 19.728 10.512 17.556 9.936 15.372C9.48 13.524 9.42 12.228 9.756 11.484C10.332 10.044 12.144 8.172 15.192 5.868C18.456 3.444 21.036 2.052 22.932 1.692C23.028 1.668 23.112 1.656 23.184 1.656ZM42.9019 1.656C42.9499 1.632 43.2739 1.62 43.8739 1.62C44.4259 1.644 44.7739 1.68 44.9179 1.728C45.6379 1.92 46.1059 2.28 46.3219 2.808C46.4899 3.096 46.5859 3.456 46.6099 3.888C46.6339 4.512 46.4659 5.292 46.1059 6.228C45.6499 7.524 45.1339 8.628 44.5579 9.54C44.0779 10.284 43.3219 10.8 42.2899 11.088C42.0259 11.16 41.7739 11.196 41.5339 11.196C41.3659 11.196 41.2339 11.16 41.1379 11.088C40.9459 10.968 40.8499 10.812 40.8499 10.62C40.8499 10.5 40.9819 10.164 41.2459 9.612C41.7019 8.724 42.0619 7.956 42.3259 7.308C42.5419 6.66 42.6499 6.144 42.6499 5.76C42.6499 5.304 42.5779 4.992 42.4339 4.824C42.3619 4.728 42.2419 4.644 42.0739 4.572C41.7619 4.476 41.3059 4.44 40.7059 4.464C39.3859 4.584 38.2939 4.92 37.4299 5.472C36.6859 6 36.0139 6.636 35.4139 7.38C33.9979 9.156 32.9659 11.388 32.3179 14.076C31.4059 17.772 31.6219 20.676 32.9659 22.788C33.3259 23.364 33.7699 23.832 34.2979 24.192C35.0659 24.792 36.0499 25.092 37.2499 25.092C37.3939 25.092 37.5259 25.08 37.6459 25.056C39.1579 24.888 40.4299 24.048 41.4619 22.536C41.7979 22.056 42.1699 21.672 42.5779 21.384C43.2739 20.904 43.9699 20.664 44.6659 20.664C44.9299 20.664 45.1219 20.772 45.2419 20.988C45.3379 21.132 45.3379 21.348 45.2419 21.636C45.1459 21.828 44.8459 22.272 44.3419 22.968C42.5899 25.128 40.3819 26.616 37.7179 27.432C37.1899 27.6 36.6619 27.72 36.1339 27.792C35.3179 27.936 34.5499 27.96 33.8299 27.864C33.1099 27.792 32.3779 27.576 31.6339 27.216C30.5779 26.688 29.7499 25.944 29.1499 24.984C28.2379 23.568 27.8059 21.696 27.8539 19.368C27.8779 18.12 28.0699 16.776 28.4299 15.336C29.4379 11.304 31.2259 8.112 33.7939 5.76C35.4499 4.152 37.3819 3 39.5899 2.304C40.5499 1.968 41.6539 1.752 42.9019 1.656Z"/>
</mask>
<path d="M9.72 1.656L10.152 1.62H10.188C10.38 1.62 10.536 1.656 10.656 1.728C10.848 1.824 10.932 2.076 10.908 2.484C10.908 2.556 10.908 2.652 10.908 2.772C10.716 6.828 9.768 11.64 8.064 17.208C8.04 17.256 8.016 17.316 7.992 17.388C6.984 20.724 6.012 23.496 5.076 25.704C5.004 25.92 4.944 26.064 4.896 26.136C4.584 26.64 4.08 27.06 3.384 27.396C2.856 27.66 2.352 27.792 1.872 27.792C1.68 27.792 1.536 27.756 1.44 27.684C1.248 27.564 1.152 27.408 1.152 27.216C1.152 27.12 1.284 26.748 1.548 26.1C3.252 21.612 4.632 17.244 5.688 12.996C6.12 11.172 6.468 9.324 6.732 7.452C6.9 5.988 6.96 5.256 6.912 5.256C6.912 5.208 6.684 5.304 6.228 5.544C5.532 5.88 4.98 6.06 4.572 6.084C4.332 6.084 4.164 6.048 4.068 5.976C3.852 5.88 3.744 5.712 3.744 5.472C3.744 4.992 4.164 4.476 5.004 3.924C5.508 3.564 6.816 2.904 8.928 1.944C9.144 1.824 9.276 1.764 9.324 1.764C9.564 1.692 9.696 1.656 9.72 1.656ZM23.184 1.656H24.552C24.816 1.728 25.092 1.86 25.38 2.052C26.028 2.508 26.352 3.132 26.352 3.924C26.352 4.524 26.172 5.004 25.812 5.364C25.62 5.532 25.404 5.676 25.164 5.796C24.78 5.988 24.408 6.084 24.048 6.084C23.88 6.084 23.736 6.036 23.616 5.94C23.4 5.796 23.292 5.52 23.292 5.112C23.292 4.8 23.268 4.584 23.22 4.464C23.124 4.296 22.908 4.176 22.572 4.104C22.428 4.056 22.248 4.068 22.032 4.14C21.096 4.428 19.848 5.112 18.288 6.192C15.816 7.8 14.064 9.276 13.032 10.62C12.696 11.076 12.54 11.52 12.564 11.952C12.564 12.048 12.576 12.168 12.6 12.312C12.912 14.688 13.86 17.448 15.444 20.592C16.068 21.816 16.668 22.824 17.244 23.616C18.204 24.864 19.044 25.452 19.764 25.38C21.588 25.188 22.728 24.468 23.184 23.22C23.256 22.908 23.436 22.62 23.724 22.356C24.228 21.9 24.792 21.672 25.416 21.672C25.608 21.672 25.764 21.72 25.884 21.816C26.1 21.96 26.208 22.152 26.208 22.392C26.208 22.824 25.968 23.412 25.488 24.156C24.528 25.596 23.076 26.64 21.132 27.288C20.196 27.6 19.236 27.768 18.252 27.792C17.532 27.792 16.98 27.672 16.596 27.432C16.5 27.36 16.392 27.288 16.272 27.216C14.976 26.328 13.692 24.552 12.42 21.888C11.34 19.728 10.512 17.556 9.936 15.372C9.48 13.524 9.42 12.228 9.756 11.484C10.332 10.044 12.144 8.172 15.192 5.868C18.456 3.444 21.036 2.052 22.932 1.692C23.028 1.668 23.112 1.656 23.184 1.656ZM42.9019 1.656C42.9499 1.632 43.2739 1.62 43.8739 1.62C44.4259 1.644 44.7739 1.68 44.9179 1.728C45.6379 1.92 46.1059 2.28 46.3219 2.808C46.4899 3.096 46.5859 3.456 46.6099 3.888C46.6339 4.512 46.4659 5.292 46.1059 6.228C45.6499 7.524 45.1339 8.628 44.5579 9.54C44.0779 10.284 43.3219 10.8 42.2899 11.088C42.0259 11.16 41.7739 11.196 41.5339 11.196C41.3659 11.196 41.2339 11.16 41.1379 11.088C40.9459 10.968 40.8499 10.812 40.8499 10.62C40.8499 10.5 40.9819 10.164 41.2459 9.612C41.7019 8.724 42.0619 7.956 42.3259 7.308C42.5419 6.66 42.6499 6.144 42.6499 5.76C42.6499 5.304 42.5779 4.992 42.4339 4.824C42.3619 4.728 42.2419 4.644 42.0739 4.572C41.7619 4.476 41.3059 4.44 40.7059 4.464C39.3859 4.584 38.2939 4.92 37.4299 5.472C36.6859 6 36.0139 6.636 35.4139 7.38C33.9979 9.156 32.9659 11.388 32.3179 14.076C31.4059 17.772 31.6219 20.676 32.9659 22.788C33.3259 23.364 33.7699 23.832 34.2979 24.192C35.0659 24.792 36.0499 25.092 37.2499 25.092C37.3939 25.092 37.5259 25.08 37.6459 25.056C39.1579 24.888 40.4299 24.048 41.4619 22.536C41.7979 22.056 42.1699 21.672 42.5779 21.384C43.2739 20.904 43.9699 20.664 44.6659 20.664C44.9299 20.664 45.1219 20.772 45.2419 20.988C45.3379 21.132 45.3379 21.348 45.2419 21.636C45.1459 21.828 44.8459 22.272 44.3419 22.968C42.5899 25.128 40.3819 26.616 37.7179 27.432C37.1899 27.6 36.6619 27.72 36.1339 27.792C35.3179 27.936 34.5499 27.96 33.8299 27.864C33.1099 27.792 32.3779 27.576 31.6339 27.216C30.5779 26.688 29.7499 25.944 29.1499 24.984C28.2379 23.568 27.8059 21.696 27.8539 19.368C27.8779 18.12 28.0699 16.776 28.4299 15.336C29.4379 11.304 31.2259 8.112 33.7939 5.76C35.4499 4.152 37.3819 3 39.5899 2.304C40.5499 1.968 41.6539 1.752 42.9019 1.656Z" fill="#6FA387"/>
<path d="M9.72 1.656V2.656H9.76159L9.80304 2.65254L9.72 1.656ZM10.152 1.62V0.619998H10.1104L10.069 0.623453L10.152 1.62ZM10.656 1.728L10.1415 2.58549L10.1744 2.60525L10.2088 2.62243L10.656 1.728ZM10.908 2.484L9.90973 2.42527L9.908 2.45461V2.484H10.908ZM10.908 2.772L11.9069 2.81928L11.908 2.79565V2.772H10.908ZM8.064 17.208L8.95843 17.6552L8.99578 17.5805L9.02022 17.5006L8.064 17.208ZM7.992 17.388L7.04332 17.0718L7.03884 17.0852L7.03474 17.0988L7.992 17.388ZM5.076 25.704L4.15531 25.3137L4.13985 25.3502L4.12732 25.3878L5.076 25.704ZM4.896 26.136L4.06395 25.5813L4.0546 25.5953L4.04574 25.6096L4.896 26.136ZM3.384 27.396L2.94921 26.4954L2.93679 26.5016L3.384 27.396ZM1.44 27.684L2.04 26.884L2.00602 26.8585L1.97 26.836L1.44 27.684ZM1.548 26.1L2.47409 26.4773L2.47862 26.4662L2.48288 26.455L1.548 26.1ZM5.688 12.996L6.65852 13.2373L6.66108 13.2265L5.688 12.996ZM6.732 7.452L7.7222 7.59164L7.72401 7.57884L7.72548 7.566L6.732 7.452ZM6.912 5.256H5.912V6.256H6.912V5.256ZM6.228 5.544L6.66275 6.44455L6.67838 6.437L6.69375 6.42892L6.228 5.544ZM4.572 6.084V7.084H4.60139L4.63072 7.08227L4.572 6.084ZM4.068 5.976L4.668 5.176L4.57751 5.10813L4.47413 5.06218L4.068 5.976ZM5.004 3.924L5.55318 4.7597L5.56942 4.74903L5.58524 4.73773L5.004 3.924ZM8.928 1.944L9.3418 2.85436L9.37845 2.83771L9.41364 2.81816L8.928 1.944ZM9.324 1.764V2.764H9.47077L9.61135 2.72182L9.324 1.764ZM24.552 1.656L24.8151 0.691235L24.6859 0.655998H24.552V1.656ZM25.38 2.052L25.9555 1.23419L25.9452 1.22694L25.9347 1.21995L25.38 2.052ZM25.812 5.364L26.4705 6.11658L26.4956 6.09465L26.5191 6.07111L25.812 5.364ZM23.616 5.94L24.2407 5.15913L24.2068 5.13202L24.1707 5.10795L23.616 5.94ZM23.22 4.464L24.1485 4.09261L24.1227 4.02814L24.0882 3.96786L23.22 4.464ZM22.572 4.104L22.2558 5.05268L22.3083 5.0702L22.3625 5.0818L22.572 4.104ZM22.032 4.14L22.3261 5.09578L22.3372 5.09236L22.3482 5.08868L22.032 4.14ZM18.288 6.192L18.8333 7.03026L18.8454 7.0224L18.8572 7.01419L18.288 6.192ZM13.032 10.62L12.2389 10.011L12.2328 10.0188L12.2269 10.0268L13.032 10.62ZM12.564 11.952H13.564V11.9242L13.5625 11.8965L12.564 11.952ZM12.6 12.312L13.5915 12.1818L13.5892 12.1647L13.5864 12.1476L12.6 12.312ZM15.444 20.592L14.5509 21.0419L14.5531 21.0462L15.444 20.592ZM17.244 23.616L16.4353 24.2042L16.4432 24.215L16.4514 24.2257L17.244 23.616ZM19.764 25.38L19.8635 26.3751L19.8687 26.3745L19.764 25.38ZM23.184 23.22L24.1233 23.5632L24.1445 23.5051L24.1584 23.4449L23.184 23.22ZM23.724 22.356L23.0531 21.6144L23.0483 21.6188L23.724 22.356ZM25.884 21.816L25.2593 22.5969L25.2932 22.624L25.3293 22.6481L25.884 21.816ZM25.488 24.156L26.3201 24.7107L26.3242 24.7044L26.3283 24.6981L25.488 24.156ZM21.132 27.288L20.8158 26.3393L20.8158 26.3393L21.132 27.288ZM18.252 27.792V28.792H18.2642L18.2764 28.7917L18.252 27.792ZM16.596 27.432L15.996 28.232L16.03 28.2575L16.066 28.28L16.596 27.432ZM16.272 27.216L15.7068 28.0409L15.7316 28.058L15.7575 28.0735L16.272 27.216ZM12.42 21.888L13.3224 21.4571L13.3185 21.4489L13.3144 21.4408L12.42 21.888ZM9.936 15.372L8.96512 15.6116L8.96703 15.6193L8.96906 15.627L9.936 15.372ZM9.756 11.484L10.6674 11.8956L10.6764 11.8757L10.6845 11.8554L9.756 11.484ZM15.192 5.868L14.5958 5.06515L14.589 5.07027L15.192 5.868ZM22.932 1.692L23.1185 2.67445L23.1467 2.6691L23.1745 2.66214L22.932 1.692ZM9.72 1.656L9.80304 2.65254L10.235 2.61654L10.152 1.62L10.069 0.623453L9.63696 0.659452L9.72 1.656ZM10.152 1.62V2.62H10.188V1.62V0.619998H10.152V1.62ZM10.188 1.62V2.62C10.2228 2.62 10.2328 2.62338 10.2241 2.62139C10.2145 2.61917 10.1832 2.61052 10.1415 2.58549L10.656 1.728L11.1705 0.870508C10.8476 0.676787 10.4965 0.619998 10.188 0.619998V1.62ZM10.656 1.728L10.2088 2.62243C10.1215 2.5788 10.0493 2.51757 9.99625 2.45064C9.94569 2.38689 9.92314 2.33169 9.91432 2.30523C9.90581 2.27969 9.9077 2.27406 9.90986 2.29778C9.91195 2.32079 9.91345 2.36203 9.90973 2.42527L10.908 2.484L11.9063 2.54272C11.932 2.10533 11.896 1.22996 11.1032 0.833572L10.656 1.728ZM10.908 2.484H9.908C9.908 2.48414 9.908 2.48428 9.908 2.48442C9.908 2.48456 9.908 2.4847 9.908 2.48484C9.908 2.48498 9.908 2.48512 9.908 2.48527C9.908 2.48541 9.908 2.48555 9.908 2.48569C9.908 2.48583 9.908 2.48597 9.908 2.48611C9.908 2.48626 9.908 2.4864 9.908 2.48654C9.908 2.48668 9.908 2.48682 9.908 2.48696C9.908 2.48711 9.908 2.48725 9.908 2.48739C9.908 2.48753 9.908 2.48767 9.908 2.48782C9.908 2.48796 9.908 2.4881 9.908 2.48824C9.908 2.48839 9.908 2.48853 9.908 2.48867C9.908 2.48881 9.908 2.48896 9.908 2.4891C9.908 2.48924 9.908 2.48939 9.908 2.48953C9.908 2.48967 9.908 2.48981 9.908 2.48996C9.908 2.4901 9.908 2.49024 9.908 2.49039C9.908 2.49053 9.908 2.49067 9.908 2.49082C9.908 2.49096 9.908 2.49111 9.908 2.49125C9.908 2.49139 9.908 2.49154 9.908 2.49168C9.908 2.49182 9.908 2.49197 9.908 2.49211C9.908 2.49226 9.908 2.4924 9.908 2.49255C9.908 2.49269 9.908 2.49283 9.908 2.49298C9.908 2.49312 9.908 2.49327 9.908 2.49341C9.908 2.49356 9.908 2.4937 9.908 2.49385C9.908 2.49399 9.908 2.49414 9.908 2.49428C9.908 2.49443 9.908 2.49457 9.908 2.49472C9.908 2.49486 9.908 2.49501 9.908 2.49515C9.908 2.4953 9.908 2.49544 9.908 2.49559C9.908 2.49573 9.908 2.49588 9.908 2.49603C9.908 2.49617 9.908 2.49632 9.908 2.49646C9.908 2.49661 9.908 2.49676 9.908 2.4969C9.908 2.49705 9.908 2.49719 9.908 2.49734C9.908 2.49749 9.908 2.49763 9.908 2.49778C9.908 2.49793 9.908 2.49807 9.908 2.49822C9.908 2.49837 9.908 2.49851 9.908 2.49866C9.908 2.49881 9.908 2.49895 9.908 2.4991C9.908 2.49925 9.908 2.49939 9.908 2.49954C9.908 2.49969 9.908 2.49984 9.908 2.49998C9.908 2.50013 9.908 2.50028 9.908 2.50043C9.908 2.50057 9.908 2.50072 9.908 2.50087C9.908 2.50102 9.908 2.50116 9.908 2.50131C9.908 2.50146 9.908 2.50161 9.908 2.50176C9.908 2.5019 9.908 2.50205 9.908 2.5022C9.908 2.50235 9.908 2.5025 9.908 2.50265C9.908 2.5028 9.908 2.50294 9.908 2.50309C9.908 2.50324 9.908 2.50339 9.908 2.50354C9.908 2.50369 9.908 2.50384 9.908 2.50399C9.908 2.50413 9.908 2.50428 9.908 2.50443C9.908 2.50458 9.908 2.50473 9.908 2.50488C9.908 2.50503 9.908 2.50518 9.908 2.50533C9.908 2.50548 9.908 2.50563 9.908 2.50578C9.908 2.50593 9.908 2.50608 9.908 2.50623C9.908 2.50638 9.908 2.50653 9.908 2.50668C9.908 2.50683 9.908 2.50698 9.908 2.50713C9.908 2.50728 9.908 2.50743 9.908 2.50758C9.908 2.50773 9.908 2.50788 9.908 2.50803C9.908 2.50818 9.908 2.50833 9.908 2.50848C9.908 2.50864 9.908 2.50879 9.908 2.50894C9.908 2.50909 9.908 2.50924 9.908 2.50939C9.908 2.50954 9.908 2.50969 9.908 2.50984C9.908 2.51 9.908 2.51015 9.908 2.5103C9.908 2.51045 9.908 2.5106 9.908 2.51075C9.908 2.51091 9.908 2.51106 9.908 2.51121C9.908 2.51136 9.908 2.51151 9.908 2.51167C9.908 2.51182 9.908 2.51197 9.908 2.51212C9.908 2.51228 9.908 2.51243 9.908 2.51258C9.908 2.51273 9.908 2.51289 9.908 2.51304C9.908 2.51319 9.908 2.51334 9.908 2.5135C9.908 2.51365 9.908 2.5138 9.908 2.51396C9.908 2.51411 9.908 2.51426 9.908 2.51442C9.908 2.51457 9.908 2.51472 9.908 2.51488C9.908 2.51503 9.908 2.51518 9.908 2.51534C9.908 2.51549 9.908 2.51564 9.908 2.5158C9.908 2.51595 9.908 2.5161 9.908 2.51626C9.908 2.51641 9.908 2.51657 9.908 2.51672C9.908 2.51688 9.908 2.51703 9.908 2.51718C9.908 2.51734 9.908 2.51749 9.908 2.51765C9.908 2.5178 9.908 2.51796 9.908 2.51811C9.908 2.51827 9.908 2.51842 9.908 2.51858C9.908 2.51873 9.908 2.51889 9.908 2.51904C9.908 2.5192 9.908 2.51935 9.908 2.51951C9.908 2.51966 9.908 2.51982 9.908 2.51997C9.908 2.52013 9.908 2.52028 9.908 2.52044C9.908 2.52059 9.908 2.52075 9.908 2.52091C9.908 2.52106 9.908 2.52122 9.908 2.52137C9.908 2.52153 9.908 2.52169 9.908 2.52184C9.908 2.522 9.908 2.52215 9.908 2.52231C9.908 2.52247 9.908 2.52262 9.908 2.52278C9.908 2.52294 9.908 2.52309 9.908 2.52325C9.908 2.52341 9.908 2.52356 9.908 2.52372C9.908 2.52388 9.908 2.52403 9.908 2.52419C9.908 2.52435 9.908 2.52451 9.908 2.52466C9.908 2.52482 9.908 2.52498 9.908 2.52514C9.908 2.52529 9.908 2.52545 9.908 2.52561C9.908 2.52577 9.908 2.52592 9.908 2.52608C9.908 2.52624 9.908 2.5264 9.908 2.52656C9.908 2.52671 9.908 2.52687 9.908 2.52703C9.908 2.52719 9.908 2.52735 9.908 2.5275C9.908 2.52766 9.908 2.52782 9.908 2.52798C9.908 2.52814 9.908 2.5283 9.908 2.52846C9.908 2.52861 9.908 2.52877 9.908 2.52893C9.908 2.52909 9.908 2.52925 9.908 2.52941C9.908 2.52957 9.908 2.52973 9.908 2.52989C9.908 2.53005 9.908 2.53021 9.908 2.53037C9.908 2.53052 9.908 2.53068 9.908 2.53084C9.908 2.531 9.908 2.53116 9.908 2.53132C9.908 2.53148 9.908 2.53164 9.908 2.5318C9.908 2.53196 9.908 2.53212 9.908 2.53228C9.908 2.53244 9.908 2.5326 9.908 2.53276C9.908 2.53292 9.908 2.53309 9.908 2.53325C9.908 2.53341 9.908 2.53357 9.908 2.53373C9.908 2.53389 9.908 2.53405 9.908 2.53421C9.908 2.53437 9.908 2.53453 9.908 2.53469C9.908 2.53485 9.908 2.53502 9.908 2.53518C9.908 2.53534 9.908 2.5355 9.908 2.53566C9.908 2.53582 9.908 2.53598 9.908 2.53615C9.908 2.53631 9.908 2.53647 9.908 2.53663C9.908 2.53679 9.908 2.53696 9.908 2.53712C9.908 2.53728 9.908 2.53744 9.908 2.5376C9.908 2.53777 9.908 2.53793 9.908 2.53809C9.908 2.53825 9.908 2.53842 9.908 2.53858C9.908 2.53874 9.908 2.5389 9.908 2.53907C9.908 2.53923 9.908 2.53939 9.908 2.53956C9.908 2.53972 9.908 2.53988 9.908 2.54004C9.908 2.54021 9.908 2.54037 9.908 2.54053C9.908 2.5407 9.908 2.54086 9.908 2.54102C9.908 2.54119 9.908 2.54135 9.908 2.54152C9.908 2.54168 9.908 2.54184 9.908 2.54201C9.908 2.54217 9.908 2.54233 9.908 2.5425C9.908 2.54266 9.908 2.54283 9.908 2.54299C9.908 2.54316 9.908 2.54332 9.908 2.54348C9.908 2.54365 9.908 2.54381 9.908 2.54398C9.908 2.54414 9.908 2.54431 9.908 2.54447C9.908 2.54464 9.908 2.5448 9.908 2.54497C9.908 2.54513 9.908 2.5453 9.908 2.54546C9.908 2.54563 9.908 2.54579 9.908 2.54596C9.908 2.54612 9.908 2.54629 9.908 2.54645C9.908 2.54662 9.908 2.54678 9.908 2.54695C9.908 2.54712 9.908 2.54728 9.908 2.54745C9.908 2.54761 9.908 2.54778 9.908 2.54795C9.908 2.54811 9.908 2.54828 9.908 2.54844C9.908 2.54861 9.908 2.54878 9.908 2.54894C9.908 2.54911 9.908 2.54928 9.908 2.54944C9.908 2.54961 9.908 2.54978 9.908 2.54994C9.908 2.55011 9.908 2.55028 9.908 2.55044C9.908 2.55061 9.908 2.55078 9.908 2.55094C9.908 2.55111 9.908 2.55128 9.908 2.55145C9.908 2.55161 9.908 2.55178 9.908 2.55195C9.908 2.55212 9.908 2.55228 9.908 2.55245C9.908 2.55262 9.908 2.55279 9.908 2.55296C9.908 2.55312 9.908 2.55329 9.908 2.55346C9.908 2.55363 9.908 2.5538 9.908 2.55396C9.908 2.55413 9.908 2.5543 9.908 2.55447C9.908 2.55464 9.908 2.55481 9.908 2.55497C9.908 2.55514 9.908 2.55531 9.908 2.55548C9.908 2.55565 9.908 2.55582 9.908 2.55599C9.908 2.55616 9.908 2.55633 9.908 2.5565C9.908 2.55666 9.908 2.55683 9.908 2.557C9.908 2.55717 9.908 2.55734 9.908 2.55751C9.908 2.55768 9.908 2.55785 9.908 2.55802C9.908 2.55819 9.908 2.55836 9.908 2.55853C9.908 2.5587 9.908 2.55887 9.908 2.55904C9.908 2.55921 9.908 2.55938 9.908 2.55955C9.908 2.55972 9.908 2.55989 9.908 2.56006C9.908 2.56023 9.908 2.5604 9.908 2.56057C9.908 2.56074 9.908 2.56091 9.908 2.56109C9.908 2.56126 9.908 2.56143 9.908 2.5616C9.908 2.56177 9.908 2.56194 9.908 2.56211C9.908 2.56228 9.908 2.56245 9.908 2.56263C9.908 2.5628 9.908 2.56297 9.908 2.56314C9.908 2.56331 9.908 2.56348 9.908 2.56365C9.908 2.56383 9.908 2.564 9.908 2.56417C9.908 2.56434 9.908 2.56451 9.908 2.56469C9.908 2.56486 9.908 2.56503 9.908 2.5652C9.908 2.56538 9.908 2.56555 9.908 2.56572C9.908 2.56589 9.908 2.56607 9.908 2.56624C9.908 2.56641 9.908 2.56658 9.908 2.56676C9.908 2.56693 9.908 2.5671 9.908 2.56728C9.908 2.56745 9.908 2.56762 9.908 2.56779C9.908 2.56797 9.908 2.56814 9.908 2.56831C9.908 2.56849 9.908 2.56866 9.908 2.56883C9.908 2.56901 9.908 2.56918 9.908 2.56936C9.908 2.56953 9.908 2.5697 9.908 2.56988C9.908 2.57005 9.908 2.57023 9.908 2.5704C9.908 2.57057 9.908 2.57075 9.908 2.57092C9.908 2.5711 9.908 2.57127 9.908 2.57145C9.908 2.57162 9.908 2.57179 9.908 2.57197C9.908 2.57214 9.908 2.57232 9.908 2.57249C9.908 2.57267 9.908 2.57284 9.908 2.57302C9.908 2.57319 9.908 2.57337 9.908 2.57354C9.908 2.57372 9.908 2.57389 9.908 2.57407C9.908 2.57425 9.908 2.57442 9.908 2.5746C9.908 2.57477 9.908 2.57495 9.908 2.57512C9.908 2.5753 9.908 2.57548 9.908 2.57565C9.908 2.57583 9.908 2.576 9.908 2.57618C9.908 2.57636 9.908 2.57653 9.908 2.57671C9.908 2.57688 9.908 2.57706 9.908 2.57724C9.908 2.57741 9.908 2.57759 9.908 2.57777C9.908 2.57794 9.908 2.57812 9.908 2.5783C9.908 2.57847 9.908 2.57865 9.908 2.57883C9.908 2.57901 9.908 2.57918 9.908 2.57936C9.908 2.57954 9.908 2.57971 9.908 2.57989C9.908 2.58007 9.908 2.58025 9.908 2.58042C9.908 2.5806 9.908 2.58078 9.908 2.58096C9.908 2.58114 9.908 2.58131 9.908 2.58149C9.908 2.58167 9.908 2.58185 9.908 2.58203C9.908 2.5822 9.908 2.58238 9.908 2.58256C9.908 2.58274 9.908 2.58292 9.908 2.5831C9.908 2.58327 9.908 2.58345 9.908 2.58363C9.908 2.58381 9.908 2.58399 9.908 2.58417C9.908 2.58435 9.908 2.58453 9.908 2.5847C9.908 2.58488 9.908 2.58506 9.908 2.58524C9.908 2.58542 9.908 2.5856 9.908 2.58578C9.908 2.58596 9.908 2.58614 9.908 2.58632C9.908 2.5865 9.908 2.58668 9.908 2.58686C9.908 2.58704 9.908 2.58722 9.908 2.5874C9.908 2.58758 9.908 2.58776 9.908 2.58794C9.908 2.58812 9.908 2.5883 9.908 2.58848C9.908 2.58866 9.908 2.58884 9.908 2.58902C9.908 2.5892 9.908 2.58938 9.908 2.58956C9.908 2.58974 9.908 2.58992 9.908 2.5901C9.908 2.59029 9.908 2.59047 9.908 2.59065C9.908 2.59083 9.908 2.59101 9.908 2.59119C9.908 2.59137 9.908 2.59155 9.908 2.59174C9.908 2.59192 9.908 2.5921 9.908 2.59228C9.908 2.59246 9.908 2.59264 9.908 2.59282C9.908 2.59301 9.908 2.59319 9.908 2.59337C9.908 2.59355 9.908 2.59373 9.908 2.59392C9.908 2.5941 9.908 2.59428 9.908 2.59446C9.908 2.59465 9.908 2.59483 9.908 2.59501C9.908 2.59519 9.908 2.59538 9.908 2.59556C9.908 2.59574 9.908 2.59592 9.908 2.59611C9.908 2.59629 9.908 2.59647 9.908 2.59666C9.908 2.59684 9.908 2.59702 9.908 2.59721C9.908 2.59739 9.908 2.59757 9.908 2.59776C9.908 2.59794 9.908 2.59812 9.908 2.59831C9.908 2.59849 9.908 2.59867 9.908 2.59886C9.908 2.59904 9.908 2.59923 9.908 2.59941C9.908 2.59959 9.908 2.59978 9.908 2.59996C9.908 2.60015 9.908 2.60033 9.908 2.60052C9.908 2.6007 9.908 2.60088 9.908 2.60107C9.908 2.60125 9.908 2.60144 9.908 2.60162C9.908 2.60181 9.908 2.60199 9.908 2.60218C9.908 2.60236 9.908 2.60255 9.908 2.60273C9.908 2.60292 9.908 2.6031 9.908 2.60329C9.908 2.60347 9.908 2.60366 9.908 2.60384C9.908 2.60403 9.908 2.60422 9.908 2.6044C9.908 2.60459 9.908 2.60477 9.908 2.60496C9.908 2.60514 9.908 2.60533 9.908 2.60552C9.908 2.6057 9.908 2.60589 9.908 2.60607C9.908 2.60626 9.908 2.60645 9.908 2.60663C9.908 2.60682 9.908 2.60701 9.908 2.60719C9.908 2.60738 9.908 2.60757 9.908 2.60775C9.908 2.60794 9.908 2.60813 9.908 2.60831C9.908 2.6085 9.908 2.60869 9.908 2.60887C9.908 2.60906 9.908 2.60925 9.908 2.60944C9.908 2.60962 9.908 2.60981 9.908 2.61C9.908 2.61019 9.908 2.61037 9.908 2.61056C9.908 2.61075 9.908 2.61094 9.908 2.61112C9.908 2.61131 9.908 2.6115 9.908 2.61169C9.908 2.61188 9.908 2.61206 9.908 2.61225C9.908 2.61244 9.908 2.61263 9.908 2.61282C9.908 2.61301 9.908 2.61319 9.908 2.61338C9.908 2.61357 9.908 2.61376 9.908 2.61395C9.908 2.61414 9.908 2.61433 9.908 2.61452C9.908 2.61471 9.908 2.61489 9.908 2.61508C9.908 2.61527 9.908 2.61546 9.908 2.61565C9.908 2.61584 9.908 2.61603 9.908 2.61622C9.908 2.61641 9.908 2.6166 9.908 2.61679C9.908 2.61698 9.908 2.61717 9.908 2.61736C9.908 2.61755 9.908 2.61774 9.908 2.61793C9.908 2.61812 9.908 2.61831 9.908 2.6185C9.908 2.61869 9.908 2.61888 9.908 2.61907C9.908 2.61926 9.908 2.61945 9.908 2.61964C9.908 2.61983 9.908 2.62002 9.908 2.62021C9.908 2.6204 9.908 2.62059 9.908 2.62079C9.908 2.62098 9.908 2.62117 9.908 2.62136C9.908 2.62155 9.908 2.62174 9.908 2.62193C9.908 2.62212 9.908 2.62232 9.908 2.62251C9.908 2.6227 9.908 2.62289 9.908 2.62308C9.908 2.62327 9.908 2.62346 9.908 2.62366C9.908 2.62385 9.908 2.62404 9.908 2.62423C9.908 2.62442 9.908 2.62462 9.908 2.62481C9.908 2.625 9.908 2.62519 9.908 2.62539C9.908 2.62558 9.908 2.62577 9.908 2.62596C9.908 2.62616 9.908 2.62635 9.908 2.62654C9.908 2.62673 9.908 2.62693 9.908 2.62712C9.908 2.62731 9.908 2.62751 9.908 2.6277C9.908 2.62789 9.908 2.62809 9.908 2.62828C9.908 2.62847 9.908 2.62867 9.908 2.62886C9.908 2.62905 9.908 2.62925 9.908 2.62944C9.908 2.62963 9.908 2.62983 9.908 2.63002C9.908 2.63022 9.908 2.63041 9.908 2.6306C9.908 2.6308 9.908 2.63099 9.908 2.63119C9.908 2.63138 9.908 2.63158 9.908 2.63177C9.908 2.63196 9.908 2.63216 9.908 2.63235C9.908 2.63255 9.908 2.63274 9.908 2.63294C9.908 2.63313 9.908 2.63333 9.908 2.63352C9.908 2.63372 9.908 2.63391 9.908 2.63411C9.908 2.6343 9.908 2.6345 9.908 2.63469C9.908 2.63489 9.908 2.63508 9.908 2.63528C9.908 2.63548 9.908 2.63567 9.908 2.63587C9.908 2.63606 9.908 2.63626 9.908 2.63645C9.908 2.63665 9.908 2.63685 9.908 2.63704C9.908 2.63724 9.908 2.63744 9.908 2.63763C9.908 2.63783 9.908 2.63802 9.908 2.63822C9.908 2.63842 9.908 2.63861 9.908 2.63881C9.908 2.63901 9.908 2.6392 9.908 2.6394C9.908 2.6396 9.908 2.63979 9.908 2.63999C9.908 2.64019 9.908 2.64039 9.908 2.64058C9.908 2.64078 9.908 2.64098 9.908 2.64117C9.908 2.64137 9.908 2.64157 9.908 2.64177C9.908 2.64196 9.908 2.64216 9.908 2.64236C9.908 2.64256 9.908 2.64276 9.908 2.64295C9.908 2.64315 9.908 2.64335 9.908 2.64355C9.908 2.64375 9.908 2.64394 9.908 2.64414C9.908 2.64434 9.908 2.64454 9.908 2.64474C9.908 2.64494 9.908 2.64513 9.908 2.64533C9.908 2.64553 9.908 2.64573 9.908 2.64593C9.908 2.64613 9.908 2.64633 9.908 2.64653C9.908 2.64673 9.908 2.64692 9.908 2.64712C9.908 2.64732 9.908 2.64752 9.908 2.64772C9.908 2.64792 9.908 2.64812 9.908 2.64832C9.908 2.64852 9.908 2.64872 9.908 2.64892C9.908 2.64912 9.908 2.64932 9.908 2.64952C9.908 2.64972 9.908 2.64992 9.908 2.65012C9.908 2.65032 9.908 2.65052 9.908 2.65072C9.908 2.65092 9.908 2.65112 9.908 2.65132C9.908 2.65152 9.908 2.65172 9.908 2.65192C9.908 2.65212 9.908 2.65232 9.908 2.65252C9.908 2.65273 9.908 2.65293 9.908 2.65313C9.908 2.65333 9.908 2.65353 9.908 2.65373C9.908 2.65393 9.908 2.65413 9.908 2.65434C9.908 2.65454 9.908 2.65474 9.908 2.65494C9.908 2.65514 9.908 2.65534 9.908 2.65554C9.908 2.65575 9.908 2.65595 9.908 2.65615C9.908 2.65635 9.908 2.65655 9.908 2.65676C9.908 2.65696 9.908 2.65716 9.908 2.65736C9.908 2.65757 9.908 2.65777 9.908 2.65797C9.908 2.65817 9.908 2.65838 9.908 2.65858C9.908 2.65878 9.908 2.65898 9.908 2.65919C9.908 2.65939 9.908 2.65959 9.908 2.6598C9.908 2.66 9.908 2.6602 9.908 2.66041C9.908 2.66061 9.908 2.66081 9.908 2.66102C9.908 2.66122 9.908 2.66142 9.908 2.66163C9.908 2.66183 9.908 2.66203 9.908 2.66224C9.908 2.66244 9.908 2.66264 9.908 2.66285C9.908 2.66305 9.908 2.66326 9.908 2.66346C9.908 2.66366 9.908 2.66387 9.908 2.66407C9.908 2.66428 9.908 2.66448 9.908 2.66469C9.908 2.66489 9.908 2.6651 9.908 2.6653C9.908 2.66551 9.908 2.66571 9.908 2.66591C9.908 2.66612 9.908 2.66632 9.908 2.66653C9.908 2.66673 9.908 2.66694 9.908 2.66715C9.908 2.66735 9.908 2.66756 9.908 2.66776C9.908 2.66797 9.908 2.66817 9.908 2.66838C9.908 2.66858 9.908 2.66879 9.908 2.669C9.908 2.6692 9.908 2.66941 9.908 2.66961C9.908 2.66982 9.908 2.67003 9.908 2.67023C9.908 2.67044 9.908 2.67064 9.908 2.67085C9.908 2.67106 9.908 2.67126 9.908 2.67147C9.908 2.67168 9.908 2.67188 9.908 2.67209C9.908 2.6723 9.908 2.6725 9.908 2.67271C9.908 2.67292 9.908 2.67312 9.908 2.67333C9.908 2.67354 9.908 2.67375 9.908 2.67395C9.908 2.67416 9.908 2.67437 9.908 2.67457C9.908 2.67478 9.908 2.67499 9.908 2.6752C9.908 2.6754 9.908 2.67561 9.908 2.67582C9.908 2.67603 9.908 2.67624 9.908 2.67644C9.908 2.67665 9.908 2.67686 9.908 2.67707C9.908 2.67728 9.908 2.67748 9.908 2.67769C9.908 2.6779 9.908 2.67811 9.908 2.67832C9.908 2.67853 9.908 2.67874 9.908 2.67894C9.908 2.67915 9.908 2.67936 9.908 2.67957C9.908 2.67978 9.908 2.67999 9.908 2.6802C9.908 2.68041 9.908 2.68062 9.908 2.68083C9.908 2.68103 9.908 2.68124 9.908 2.68145C9.908 2.68166 9.908 2.68187 9.908 2.68208C9.908 2.68229 9.908 2.6825 9.908 2.68271C9.908 2.68292 9.908 2.68313 9.908 2.68334C9.908 2.68355 9.908 2.68376 9.908 2.68397C9.908 2.68418 9.908 2.68439 9.908 2.6846C9.908 2.68481 9.908 2.68502 9.908 2.68523C9.908 2.68544 9.908 2.68566 9.908 2.68587C9.908 2.68608 9.908 2.68629 9.908 2.6865C9.908 2.68671 9.908 2.68692 9.908 2.68713C9.908 2.68734 9.908 2.68755 9.908 2.68777C9.908 2.68798 9.908 2.68819 9.908 2.6884C9.908 2.68861 9.908 2.68882 9.908 2.68903C9.908 2.68925 9.908 2.68946 9.908 2.68967C9.908 2.68988 9.908 2.69009 9.908 2.69031C9.908 2.69052 9.908 2.69073 9.908 2.69094C9.908 2.69115 9.908 2.69137 9.908 2.69158C9.908 2.69179 9.908 2.692 9.908 2.69222C9.908 2.69243 9.908 2.69264 9.908 2.69285C9.908 2.69307 9.908 2.69328 9.908 2.69349C9.908 2.69371 9.908 2.69392 9.908 2.69413C9.908 2.69435 9.908 2.69456 9.908 2.69477C9.908 2.69498 9.908 2.6952 9.908 2.69541C9.908 2.69563 9.908 2.69584 9.908 2.69605C9.908 2.69627 9.908 2.69648 9.908 2.69669C9.908 2.69691 9.908 2.69712 9.908 2.69734C9.908 2.69755 9.908 2.69776 9.908 2.69798C9.908 2.69819 9.908 2.69841 9.908 2.69862C9.908 2.69884 9.908 2.69905 9.908 2.69926C9.908 2.69948 9.908 2.69969 9.908 2.69991C9.908 2.70012 9.908 2.70034 9.908 2.70055C9.908 2.70077 9.908 2.70098 9.908 2.7012C9.908 2.70141 9.908 2.70163 9.908 2.70184C9.908 2.70206 9.908 2.70228 9.908 2.70249C9.908 2.70271 9.908 2.70292 9.908 2.70314C9.908 2.70335 9.908 2.70357 9.908 2.70378C9.908 2.704 9.908 2.70422 9.908 2.70443C9.908 2.70465 9.908 2.70486 9.908 2.70508C9.908 2.7053 9.908 2.70551 9.908 2.70573C9.908 2.70595 9.908 2.70616 9.908 2.70638C9.908 2.7066 9.908 2.70681 9.908 2.70703C9.908 2.70725 9.908 2.70746 9.908 2.70768C9.908 2.7079 9.908 2.70811 9.908 2.70833C9.908 2.70855 9.908 2.70877 9.908 2.70898C9.908 2.7092 9.908 2.70942 9.908 2.70964C9.908 2.70985 9.908 2.71007 9.908 2.71029C9.908 2.71051 9.908 2.71072 9.908 2.71094C9.908 2.71116 9.908 2.71138 9.908 2.7116C9.908 2.71181 9.908 2.71203 9.908 2.71225C9.908 2.71247 9.908 2.71269 9.908 2.71291C9.908 2.71312 9.908 2.71334 9.908 2.71356C9.908 2.71378 9.908 2.714 9.908 2.71422C9.908 2.71444 9.908 2.71466 9.908 2.71487C9.908 2.71509 9.908 2.71531 9.908 2.71553C9.908 2.71575 9.908 2.71597 9.908 2.71619C9.908 2.71641 9.908 2.71663 9.908 2.71685C9.908 2.71707 9.908 2.71729 9.908 2.71751C9.908 2.71773 9.908 2.71795 9.908 2.71817C9.908 2.71839 9.908 2.71861 9.908 2.71883C9.908 2.71905 9.908 2.71927 9.908 2.71949C9.908 2.71971 9.908 2.71993 9.908 2.72015C9.908 2.72037 9.908 2.72059 9.908 2.72081C9.908 2.72103 9.908 2.72125 9.908 2.72147C9.908 2.72169 9.908 2.72191 9.908 2.72213C9.908 2.72236 9.908 2.72258 9.908 2.7228C9.908 2.72302 9.908 2.72324 9.908 2.72346C9.908 2.72368 9.908 2.7239 9.908 2.72413C9.908 2.72435 9.908 2.72457 9.908 2.72479C9.908 2.72501 9.908 2.72523 9.908 2.72546C9.908 2.72568 9.908 2.7259 9.908 2.72612C9.908 2.72634 9.908 2.72657 9.908 2.72679C9.908 2.72701 9.908 2.72723 9.908 2.72746C9.908 2.72768 9.908 2.7279 9.908 2.72812C9.908 2.72835 9.908 2.72857 9.908 2.72879C9.908 2.72901 9.908 2.72924 9.908 2.72946C9.908 2.72968 9.908 2.72991 9.908 2.73013C9.908 2.73035 9.908 2.73058 9.908 2.7308C9.908 2.73102 9.908 2.73125 9.908 2.73147C9.908 2.73169 9.908 2.73192 9.908 2.73214C9.908 2.73237 9.908 2.73259 9.908 2.73281C9.908 2.73304 9.908 2.73326 9.908 2.73348C9.908 2.73371 9.908 2.73393 9.908 2.73416C9.908 2.73438 9.908 2.73461 9.908 2.73483C9.908 2.73506 9.908 2.73528 9.908 2.7355C9.908 2.73573 9.908 2.73595 9.908 2.73618C9.908 2.7364 9.908 2.73663 9.908 2.73685C9.908 2.73708 9.908 2.7373 9.908 2.73753C9.908 2.73775 9.908 2.73798 9.908 2.7382C9.908 2.73843 9.908 2.73866 9.908 2.73888C9.908 2.73911 9.908 2.73933 9.908 2.73956C9.908 2.73978 9.908 2.74001 9.908 2.74024C9.908 2.74046 9.908 2.74069 9.908 2.74091C9.908 2.74114 9.908 2.74137 9.908 2.74159C9.908 2.74182 9.908 2.74205 9.908 2.74227C9.908 2.7425 9.908 2.74273 9.908 2.74295C9.908 2.74318 9.908 2.74341 9.908 2.74363C9.908 2.74386 9.908 2.74409 9.908 2.74431C9.908 2.74454 9.908 2.74477 9.908 2.74499C9.908 2.74522 9.908 2.74545 9.908 2.74568C9.908 2.7459 9.908 2.74613 9.908 2.74636C9.908 2.74659 9.908 2.74681 9.908 2.74704C9.908 2.74727 9.908 2.7475 9.908 2.74773C9.908 2.74795 9.908 2.74818 9.908 2.74841C9.908 2.74864 9.908 2.74887 9.908 2.74909C9.908 2.74932 9.908 2.74955 9.908 2.74978C9.908 2.75001 9.908 2.75024 9.908 2.75047C9.908 2.75069 9.908 2.75092 9.908 2.75115C9.908 2.75138 9.908 2.75161 9.908 2.75184C9.908 2.75207 9.908 2.7523 9.908 2.75253C9.908 2.75276 9.908 2.75299 9.908 2.75321C9.908 2.75344 9.908 2.75367 9.908 2.7539C9.908 2.75413 9.908 2.75436 9.908 2.75459C9.908 2.75482 9.908 2.75505 9.908 2.75528C9.908 2.75551 9.908 2.75574 9.908 2.75597C9.908 2.7562 9.908 2.75643 9.908 2.75666C9.908 2.75689 9.908 2.75712 9.908 2.75735C9.908 2.75758 9.908 2.75782 9.908 2.75805C9.908 2.75828 9.908 2.75851 9.908 2.75874C9.908 2.75897 9.908 2.7592 9.908 2.75943C9.908 2.75966 9.908 2.75989 9.908 2.76012C9.908 2.76036 9.908 2.76059 9.908 2.76082C9.908 2.76105 9.908 2.76128 9.908 2.76151C9.908 2.76175 9.908 2.76198 9.908 2.76221C9.908 2.76244 9.908 2.76267 9.908 2.7629C9.908 2.76314 9.908 2.76337 9.908 2.7636C9.908 2.76383 9.908 2.76407 9.908 2.7643C9.908 2.76453 9.908 2.76476 9.908 2.76499C9.908 2.76523 9.908 2.76546 9.908 2.76569C9.908 2.76593 9.908 2.76616 9.908 2.76639C9.908 2.76662 9.908 2.76686 9.908 2.76709C9.908 2.76732 9.908 2.76756 9.908 2.76779C9.908 2.76802 9.908 2.76826 9.908 2.76849C9.908 2.76872 9.908 2.76896 9.908 2.76919C9.908 2.76942 9.908 2.76966 9.908 2.76989C9.908 2.77013 9.908 2.77036 9.908 2.77059C9.908 2.77083 9.908 2.77106 9.908 2.7713C9.908 2.77153 9.908 2.77176 9.908 2.772H10.908H11.908C11.908 2.77176 11.908 2.77153 11.908 2.7713C11.908 2.77106 11.908 2.77083 11.908 2.77059C11.908 2.77036 11.908 2.77013 11.908 2.76989C11.908 2.76966 11.908 2.76942 11.908 2.76919C11.908 2.76896 11.908 2.76872 11.908 2.76849C11.908 2.76826 11.908 2.76802 11.908 2.76779C11.908 2.76756 11.908 2.76732 11.908 2.76709C11.908 2.76686 11.908 2.76662 11.908 2.76639C11.908 2.76616 11.908 2.76593 11.908 2.76569C11.908 2.76546 11.908 2.76523 11.908 2.76499C11.908 2.76476 11.908 2.76453 11.908 2.7643C11.908 2.76407 11.908 2.76383 11.908 2.7636C11.908 2.76337 11.908 2.76314 11.908 2.7629C11.908 2.76267 11.908 2.76244 11.908 2.76221C11.908 2.76198 11.908 2.76175 11.908 2.76151C11.908 2.76128 11.908 2.76105 11.908 2.76082C11.908 2.76059 11.908 2.76036 11.908 2.76012C11.908 2.75989 11.908 2.75966 11.908 2.75943C11.908 2.7592 11.908 2.75897 11.908 2.75874C11.908 2.75851 11.908 2.75828 11.908 2.75805C11.908 2.75782 11.908 2.75758 11.908 2.75735C11.908 2.75712 11.908 2.75689 11.908 2.75666C11.908 2.75643 11.908 2.7562 11.908 2.75597C11.908 2.75574 11.908 2.75551 11.908 2.75528C11.908 2.75505 11.908 2.75482 11.908 2.75459C11.908 2.75436 11.908 2.75413 11.908 2.7539C11.908 2.75367 11.908 2.75344 11.908 2.75321C11.908 2.75299 11.908 2.75276 11.908 2.75253C11.908 2.7523 11.908 2.75207 11.908 2.75184C11.908 2.75161 11.908 2.75138 11.908 2.75115C11.908 2.75092 11.908 2.75069 11.908 2.75047C11.908 2.75024 11.908 2.75001 11.908 2.74978C11.908 2.74955 11.908 2.74932 11.908 2.74909C11.908 2.74887 11.908 2.74864 11.908 2.74841C11.908 2.74818 11.908 2.74795 11.908 2.74773C11.908 2.7475 11.908 2.74727 11.908 2.74704C11.908 2.74681 11.908 2.74659 11.908 2.74636C11.908 2.74613 11.908 2.7459 11.908 2.74568C11.908 2.74545 11.908 2.74522 11.908 2.74499C11.908 2.74477 11.908 2.74454 11.908 2.74431C11.908 2.74409 11.908 2.74386 11.908 2.74363C11.908 2.74341 11.908 2.74318 11.908 2.74295C11.908 2.74273 11.908 2.7425 11.908 2.74227C11.908 2.74205 11.908 2.74182 11.908 2.74159C11.908 2.74137 11.908 2.74114 11.908 2.74091C11.908 2.74069 11.908 2.74046 11.908 2.74024C11.908 2.74001 11.908 2.73978 11.908 2.73956C11.908 2.73933 11.908 2.73911 11.908 2.73888C11.908 2.73866 11.908 2.73843 11.908 2.7382C11.908 2.73798 11.908 2.73775 11.908 2.73753C11.908 2.7373 11.908 2.73708 11.908 2.73685C11.908 2.73663 11.908 2.7364 11.908 2.73618C11.908 2.73595 11.908 2.73573 11.908 2.7355C11.908 2.73528 11.908 2.73506 11.908 2.73483C11.908 2.73461 11.908 2.73438 11.908 2.73416C11.908 2.73393 11.908 2.73371 11.908 2.73348C11.908 2.73326 11.908 2.73304 11.908 2.73281C11.908 2.73259 11.908 2.73237 11.908 2.73214C11.908 2.73192 11.908 2.73169 11.908 2.73147C11.908 2.73125 11.908 2.73102 11.908 2.7308C11.908 2.73058 11.908 2.73035 11.908 2.73013C11.908 2.72991 11.908 2.72968 11.908 2.72946C11.908 2.72924 11.908 2.72901 11.908 2.72879C11.908 2.72857 11.908 2.72835 11.908 2.72812C11.908 2.7279 11.908 2.72768 11.908 2.72746C11.908 2.72723 11.908 2.72701 11.908 2.72679C11.908 2.72657 11.908 2.72634 11.908 2.72612C11.908 2.7259 11.908 2.72568 11.908 2.72546C11.908 2.72523 11.908 2.72501 11.908 2.72479C11.908 2.72457 11.908 2.72435 11.908 2.72413C11.908 2.7239 11.908 2.72368 11.908 2.72346C11.908 2.72324 11.908 2.72302 11.908 2.7228C11.908 2.72258 11.908 2.72236 11.908 2.72213C11.908 2.72191 11.908 2.72169 11.908 2.72147C11.908 2.72125 11.908 2.72103 11.908 2.72081C11.908 2.72059 11.908 2.72037 11.908 2.72015C11.908 2.71993 11.908 2.71971 11.908 2.71949C11.908 2.71927 11.908 2.71905 11.908 2.71883C11.908 2.71861 11.908 2.71839 11.908 2.71817C11.908 2.71795 11.908 2.71773 11.908 2.71751C11.908 2.71729 11.908 2.71707 11.908 2.71685C11.908 2.71663 11.908 2.71641 11.908 2.71619C11.908 2.71597 11.908 2.71575 11.908 2.71553C11.908 2.71531 11.908 2.71509 11.908 2.71487C11.908 2.71466 11.908 2.71444 11.908 2.71422C11.908 2.714 11.908 2.71378 11.908 2.71356C11.908 2.71334 11.908 2.71312 11.908 2.71291C11.908 2.71269 11.908 2.71247 11.908 2.71225C11.908 2.71203 11.908 2.71181 11.908 2.7116C11.908 2.71138 11.908 2.71116 11.908 2.71094C11.908 2.71072 11.908 2.71051 11.908 2.71029C11.908 2.71007 11.908 2.70985 11.908 2.70964C11.908 2.70942 11.908 2.7092 11.908 2.70898C11.908 2.70877 11.908 2.70855 11.908 2.70833C11.908 2.70811 11.908 2.7079 11.908 2.70768C11.908 2.70746 11.908 2.70725 11.908 2.70703C11.908 2.70681 11.908 2.7066 11.908 2.70638C11.908 2.70616 11.908 2.70595 11.908 2.70573C11.908 2.70551 11.908 2.7053 11.908 2.70508C11.908 2.70486 11.908 2.70465 11.908 2.70443C11.908 2.70422 11.908 2.704 11.908 2.70378C11.908 2.70357 11.908 2.70335 11.908 2.70314C11.908 2.70292 11.908 2.70271 11.908 2.70249C11.908 2.70228 11.908 2.70206 11.908 2.70184C11.908 2.70163 11.908 2.70141 11.908 2.7012C11.908 2.70098 11.908 2.70077 11.908 2.70055C11.908 2.70034 11.908 2.70012 11.908 2.69991C11.908 2.69969 11.908 2.69948 11.908 2.69926C11.908 2.69905 11.908 2.69884 11.908 2.69862C11.908 2.69841 11.908 2.69819 11.908 2.69798C11.908 2.69776 11.908 2.69755 11.908 2.69734C11.908 2.69712 11.908 2.69691 11.908 2.69669C11.908 2.69648 11.908 2.69627 11.908 2.69605C11.908 2.69584 11.908 2.69563 11.908 2.69541C11.908 2.6952 11.908 2.69498 11.908 2.69477C11.908 2.69456 11.908 2.69435 11.908 2.69413C11.908 2.69392 11.908 2.69371 11.908 2.69349C11.908 2.69328 11.908 2.69307 11.908 2.69285C11.908 2.69264 11.908 2.69243 11.908 2.69222C11.908 2.692 11.908 2.69179 11.908 2.69158C11.908 2.69137 11.908 2.69115 11.908 2.69094C11.908 2.69073 11.908 2.69052 11.908 2.69031C11.908 2.69009 11.908 2.68988 11.908 2.68967C11.908 2.68946 11.908 2.68925 11.908 2.68903C11.908 2.68882 11.908 2.68861 11.908 2.6884C11.908 2.68819 11.908 2.68798 11.908 2.68777C11.908 2.68755 11.908 2.68734 11.908 2.68713C11.908 2.68692 11.908 2.68671 11.908 2.6865C11.908 2.68629 11.908 2.68608 11.908 2.68587C11.908 2.68566 11.908 2.68544 11.908 2.68523C11.908 2.68502 11.908 2.68481 11.908 2.6846C11.908 2.68439 11.908 2.68418 11.908 2.68397C11.908 2.68376 11.908 2.68355 11.908 2.68334C11.908 2.68313 11.908 2.68292 11.908 2.68271C11.908 2.6825 11.908 2.68229 11.908 2.68208C11.908 2.68187 11.908 2.68166 11.908 2.68145C11.908 2.68124 11.908 2.68103 11.908 2.68083C11.908 2.68062 11.908 2.68041 11.908 2.6802C11.908 2.67999 11.908 2.67978 11.908 2.67957C11.908 2.67936 11.908 2.67915 11.908 2.67894C11.908 2.67874 11.908 2.67853 11.908 2.67832C11.908 2.67811 11.908 2.6779 11.908 2.67769C11.908 2.67748 11.908 2.67728 11.908 2.67707C11.908 2.67686 11.908 2.67665 11.908 2.67644C11.908 2.67624 11.908 2.67603 11.908 2.67582C11.908 2.67561 11.908 2.6754 11.908 2.6752C11.908 2.67499 11.908 2.67478 11.908 2.67457C11.908 2.67437 11.908 2.67416 11.908 2.67395C11.908 2.67375 11.908 2.67354 11.908 2.67333C11.908 2.67312 11.908 2.67292 11.908 2.67271C11.908 2.6725 11.908 2.6723 11.908 2.67209C11.908 2.67188 11.908 2.67168 11.908 2.67147C11.908 2.67126 11.908 2.67106 11.908 2.67085C11.908 2.67064 11.908 2.67044 11.908 2.67023C11.908 2.67003 11.908 2.66982 11.908 2.66961C11.908 2.66941 11.908 2.6692 11.908 2.669C11.908 2.66879 11.908 2.66858 11.908 2.66838C11.908 2.66817 11.908 2.66797 11.908 2.66776C11.908 2.66756 11.908 2.66735 11.908 2.66715C11.908 2.66694 11.908 2.66673 11.908 2.66653C11.908 2.66632 11.908 2.66612 11.908 2.66591C11.908 2.66571 11.908 2.66551 11.908 2.6653C11.908 2.6651 11.908 2.66489 11.908 2.66469C11.908 2.66448 11.908 2.66428 11.908 2.66407C11.908 2.66387 11.908 2.66366 11.908 2.66346C11.908 2.66326 11.908 2.66305 11.908 2.66285C11.908 2.66264 11.908 2.66244 11.908 2.66224C11.908 2.66203 11.908 2.66183 11.908 2.66163C11.908 2.66142 11.908 2.66122 11.908 2.66102C11.908 2.66081 11.908 2.66061 11.908 2.66041C11.908 2.6602 11.908 2.66 11.908 2.6598C11.908 2.65959 11.908 2.65939 11.908 2.65919C11.908 2.65898 11.908 2.65878 11.908 2.65858C11.908 2.65838 11.908 2.65817 11.908 2.65797C11.908 2.65777 11.908 2.65757 11.908 2.65736C11.908 2.65716 11.908 2.65696 11.908 2.65676C11.908 2.65655 11.908 2.65635 11.908 2.65615C11.908 2.65595 11.908 2.65575 11.908 2.65554C11.908 2.65534 11.908 2.65514 11.908 2.65494C11.908 2.65474 11.908 2.65454 11.908 2.65434C11.908 2.65413 11.908 2.65393 11.908 2.65373C11.908 2.65353 11.908 2.65333 11.908 2.65313C11.908 2.65293 11.908 2.65273 11.908 2.65252C11.908 2.65232 11.908 2.65212 11.908 2.65192C11.908 2.65172 11.908 2.65152 11.908 2.65132C11.908 2.65112 11.908 2.65092 11.908 2.65072C11.908 2.65052 11.908 2.65032 11.908 2.65012C11.908 2.64992 11.908 2.64972 11.908 2.64952C11.908 2.64932 11.908 2.64912 11.908 2.64892C11.908 2.64872 11.908 2.64852 11.908 2.64832C11.908 2.64812 11.908 2.64792 11.908 2.64772C11.908 2.64752 11.908 2.64732 11.908 2.64712C11.908 2.64692 11.908 2.64673 11.908 2.64653C11.908 2.64633 11.908 2.64613 11.908 2.64593C11.908 2.64573 11.908 2.64553 11.908 2.64533C11.908 2.64513 11.908 2.64494 11.908 2.64474C11.908 2.64454 11.908 2.64434 11.908 2.64414C11.908 2.64394 11.908 2.64375 11.908 2.64355C11.908 2.64335 11.908 2.64315 11.908 2.64295C11.908 2.64276 11.908 2.64256 11.908 2.64236C11.908 2.64216 11.908 2.64196 11.908 2.64177C11.908 2.64157 11.908 2.64137 11.908 2.64117C11.908 2.64098 11.908 2.64078 11.908 2.64058C11.908 2.64039 11.908 2.64019 11.908 2.63999C11.908 2.63979 11.908 2.6396 11.908 2.6394C11.908 2.6392 11.908 2.63901 11.908 2.63881C11.908 2.63861 11.908 2.63842 11.908 2.63822C11.908 2.63802 11.908 2.63783 11.908 2.63763C11.908 2.63744 11.908 2.63724 11.908 2.63704C11.908 2.63685 11.908 2.63665 11.908 2.63645C11.908 2.63626 11.908 2.63606 11.908 2.63587C11.908 2.63567 11.908 2.63548 11.908 2.63528C11.908 2.63508 11.908 2.63489 11.908 2.63469C11.908 2.6345 11.908 2.6343 11.908 2.63411C11.908 2.63391 11.908 2.63372 11.908 2.63352C11.908 2.63333 11.908 2.63313 11.908 2.63294C11.908 2.63274 11.908 2.63255 11.908 2.63235C11.908 2.63216 11.908 2.63196 11.908 2.63177C11.908 2.63158 11.908 2.63138 11.908 2.63119C11.908 2.63099 11.908 2.6308 11.908 2.6306C11.908 2.63041 11.908 2.63022 11.908 2.63002C11.908 2.62983 11.908 2.62963 11.908 2.62944C11.908 2.62925 11.908 2.62905 11.908 2.62886C11.908 2.62867 11.908 2.62847 11.908 2.62828C11.908 2.62809 11.908 2.62789 11.908 2.6277C11.908 2.62751 11.908 2.62731 11.908 2.62712C11.908 2.62693 11.908 2.62673 11.908 2.62654C11.908 2.62635 11.908 2.62616 11.908 2.62596C11.908 2.62577 11.908 2.62558 11.908 2.62539C11.908 2.62519 11.908 2.625 11.908 2.62481C11.908 2.62462 11.908 2.62442 11.908 2.62423C11.908 2.62404 11.908 2.62385 11.908 2.62366C11.908 2.62346 11.908 2.62327 11.908 2.62308C11.908 2.62289 11.908 2.6227 11.908 2.62251C11.908 2.62232 11.908 2.62212 11.908 2.62193C11.908 2.62174 11.908 2.62155 11.908 2.62136C11.908 2.62117 11.908 2.62098 11.908 2.62079C11.908 2.62059 11.908 2.6204 11.908 2.62021C11.908 2.62002 11.908 2.61983 11.908 2.61964C11.908 2.61945 11.908 2.61926 11.908 2.61907C11.908 2.61888 11.908 2.61869 11.908 2.6185C11.908 2.61831 11.908 2.61812 11.908 2.61793C11.908 2.61774 11.908 2.61755 11.908 2.61736C11.908 2.61717 11.908 2.61698 11.908 2.61679C11.908 2.6166 11.908 2.61641 11.908 2.61622C11.908 2.61603 11.908 2.61584 11.908 2.61565C11.908 2.61546 11.908 2.61527 11.908 2.61508C11.908 2.61489 11.908 2.61471 11.908 2.61452C11.908 2.61433 11.908 2.61414 11.908 2.61395C11.908 2.61376 11.908 2.61357 11.908 2.61338C11.908 2.61319 11.908 2.61301 11.908 2.61282C11.908 2.61263 11.908 2.61244 11.908 2.61225C11.908 2.61206 11.908 2.61188 11.908 2.61169C11.908 2.6115 11.908 2.61131 11.908 2.61112C11.908 2.61094 11.908 2.61075 11.908 2.61056C11.908 2.61037 11.908 2.61019 11.908 2.61C11.908 2.60981 11.908 2.60962 11.908 2.60944C11.908 2.60925 11.908 2.60906 11.908 2.60887C11.908 2.60869 11.908 2.6085 11.908 2.60831C11.908 2.60813 11.908 2.60794 11.908 2.60775C11.908 2.60757 11.908 2.60738 11.908 2.60719C11.908 2.60701 11.908 2.60682 11.908 2.60663C11.908 2.60645 11.908 2.60626 11.908 2.60607C11.908 2.60589 11.908 2.6057 11.908 2.60552C11.908 2.60533 11.908 2.60514 11.908 2.60496C11.908 2.60477 11.908 2.60459 11.908 2.6044C11.908 2.60422 11.908 2.60403 11.908 2.60384C11.908 2.60366 11.908 2.60347 11.908 2.60329C11.908 2.6031 11.908 2.60292 11.908 2.60273C11.908 2.60255 11.908 2.60236 11.908 2.60218C11.908 2.60199 11.908 2.60181 11.908 2.60162C11.908 2.60144 11.908 2.60125 11.908 2.60107C11.908 2.60088 11.908 2.6007 11.908 2.60052C11.908 2.60033 11.908 2.60015 11.908 2.59996C11.908 2.59978 11.908 2.59959 11.908 2.59941C11.908 2.59923 11.908 2.59904 11.908 2.59886C11.908 2.59867 11.908 2.59849 11.908 2.59831C11.908 2.59812 11.908 2.59794 11.908 2.59776C11.908 2.59757 11.908 2.59739 11.908 2.59721C11.908 2.59702 11.908 2.59684 11.908 2.59666C11.908 2.59647 11.908 2.59629 11.908 2.59611C11.908 2.59592 11.908 2.59574 11.908 2.59556C11.908 2.59538 11.908 2.59519 11.908 2.59501C11.908 2.59483 11.908 2.59465 11.908 2.59446C11.908 2.59428 11.908 2.5941 11.908 2.59392C11.908 2.59373 11.908 2.59355 11.908 2.59337C11.908 2.59319 11.908 2.59301 11.908 2.59282C11.908 2.59264 11.908 2.59246 11.908 2.59228C11.908 2.5921 11.908 2.59192 11.908 2.59174C11.908 2.59155 11.908 2.59137 11.908 2.59119C11.908 2.59101 11.908 2.59083 11.908 2.59065C11.908 2.59047 11.908 2.59029 11.908 2.5901C11.908 2.58992 11.908 2.58974 11.908 2.58956C11.908 2.58938 11.908 2.5892 11.908 2.58902C11.908 2.58884 11.908 2.58866 11.908 2.58848C11.908 2.5883 11.908 2.58812 11.908 2.58794C11.908 2.58776 11.908 2.58758 11.908 2.5874C11.908 2.58722 11.908 2.58704 11.908 2.58686C11.908 2.58668 11.908 2.5865 11.908 2.58632C11.908 2.58614 11.908 2.58596 11.908 2.58578C11.908 2.5856 11.908 2.58542 11.908 2.58524C11.908 2.58506 11.908 2.58488 11.908 2.5847C11.908 2.58453 11.908 2.58435 11.908 2.58417C11.908 2.58399 11.908 2.58381 11.908 2.58363C11.908 2.58345 11.908 2.58327 11.908 2.5831C11.908 2.58292 11.908 2.58274 11.908 2.58256C11.908 2.58238 11.908 2.5822 11.908 2.58203C11.908 2.58185 11.908 2.58167 11.908 2.58149C11.908 2.58131 11.908 2.58114 11.908 2.58096C11.908 2.58078 11.908 2.5806 11.908 2.58042C11.908 2.58025 11.908 2.58007 11.908 2.57989C11.908 2.57971 11.908 2.57954 11.908 2.57936C11.908 2.57918 11.908 2.57901 11.908 2.57883C11.908 2.57865 11.908 2.57847 11.908 2.5783C11.908 2.57812 11.908 2.57794 11.908 2.57777C11.908 2.57759 11.908 2.57741 11.908 2.57724C11.908 2.57706 11.908 2.57688 11.908 2.57671C11.908 2.57653 11.908 2.57636 11.908 2.57618C11.908 2.576 11.908 2.57583 11.908 2.57565C11.908 2.57548 11.908 2.5753 11.908 2.57512C11.908 2.57495 11.908 2.57477 11.908 2.5746C11.908 2.57442 11.908 2.57425 11.908 2.57407C11.908 2.57389 11.908 2.57372 11.908 2.57354C11.908 2.57337 11.908 2.57319 11.908 2.57302C11.908 2.57284 11.908 2.57267 11.908 2.57249C11.908 2.57232 11.908 2.57214 11.908 2.57197C11.908 2.57179 11.908 2.57162 11.908 2.57145C11.908 2.57127 11.908 2.5711 11.908 2.57092C11.908 2.57075 11.908 2.57057 11.908 2.5704C11.908 2.57023 11.908 2.57005 11.908 2.56988C11.908 2.5697 11.908 2.56953 11.908 2.56936C11.908 2.56918 11.908 2.56901 11.908 2.56883C11.908 2.56866 11.908 2.56849 11.908 2.56831C11.908 2.56814 11.908 2.56797 11.908 2.56779C11.908 2.56762 11.908 2.56745 11.908 2.56728C11.908 2.5671 11.908 2.56693 11.908 2.56676C11.908 2.56658 11.908 2.56641 11.908 2.56624C11.908 2.56607 11.908 2.56589 11.908 2.56572C11.908 2.56555 11.908 2.56538 11.908 2.5652C11.908 2.56503 11.908 2.56486 11.908 2.56469C11.908 2.56451 11.908 2.56434 11.908 2.56417C11.908 2.564 11.908 2.56383 11.908 2.56365C11.908 2.56348 11.908 2.56331 11.908 2.56314C11.908 2.56297 11.908 2.5628 11.908 2.56263C11.908 2.56245 11.908 2.56228 11.908 2.56211C11.908 2.56194 11.908 2.56177 11.908 2.5616C11.908 2.56143 11.908 2.56126 11.908 2.56109C11.908 2.56091 11.908 2.56074 11.908 2.56057C11.908 2.5604 11.908 2.56023 11.908 2.56006C11.908 2.55989 11.908 2.55972 11.908 2.55955C11.908 2.55938 11.908 2.55921 11.908 2.55904C11.908 2.55887 11.908 2.5587 11.908 2.55853C11.908 2.55836 11.908 2.55819 11.908 2.55802C11.908 2.55785 11.908 2.55768 11.908 2.55751C11.908 2.55734 11.908 2.55717 11.908 2.557C11.908 2.55683 11.908 2.55666 11.908 2.5565C11.908 2.55633 11.908 2.55616 11.908 2.55599C11.908 2.55582 11.908 2.55565 11.908 2.55548C11.908 2.55531 11.908 2.55514 11.908 2.55497C11.908 2.55481 11.908 2.55464 11.908 2.55447C11.908 2.5543 11.908 2.55413 11.908 2.55396C11.908 2.5538 11.908 2.55363 11.908 2.55346C11.908 2.55329 11.908 2.55312 11.908 2.55296C11.908 2.55279 11.908 2.55262 11.908 2.55245C11.908 2.55228 11.908 2.55212 11.908 2.55195C11.908 2.55178 11.908 2.55161 11.908 2.55145C11.908 2.55128 11.908 2.55111 11.908 2.55094C11.908 2.55078 11.908 2.55061 11.908 2.55044C11.908 2.55028 11.908 2.55011 11.908 2.54994C11.908 2.54978 11.908 2.54961 11.908 2.54944C11.908 2.54928 11.908 2.54911 11.908 2.54894C11.908 2.54878 11.908 2.54861 11.908 2.54844C11.908 2.54828 11.908 2.54811 11.908 2.54795C11.908 2.54778 11.908 2.54761 11.908 2.54745C11.908 2.54728 11.908 2.54712 11.908 2.54695C11.908 2.54678 11.908 2.54662 11.908 2.54645C11.908 2.54629 11.908 2.54612 11.908 2.54596C11.908 2.54579 11.908 2.54563 11.908 2.54546C11.908 2.5453 11.908 2.54513 11.908 2.54497C11.908 2.5448 11.908 2.54464 11.908 2.54447C11.908 2.54431 11.908 2.54414 11.908 2.54398C11.908 2.54381 11.908 2.54365 11.908 2.54348C11.908 2.54332 11.908 2.54316 11.908 2.54299C11.908 2.54283 11.908 2.54266 11.908 2.5425C11.908 2.54233 11.908 2.54217 11.908 2.54201C11.908 2.54184 11.908 2.54168 11.908 2.54152C11.908 2.54135 11.908 2.54119 11.908 2.54102C11.908 2.54086 11.908 2.5407 11.908 2.54053C11.908 2.54037 11.908 2.54021 11.908 2.54004C11.908 2.53988 11.908 2.53972 11.908 2.53956C11.908 2.53939 11.908 2.53923 11.908 2.53907C11.908 2.5389 11.908 2.53874 11.908 2.53858C11.908 2.53842 11.908 2.53825 11.908 2.53809C11.908 2.53793 11.908 2.53777 11.908 2.5376C11.908 2.53744 11.908 2.53728 11.908 2.53712C11.908 2.53696 11.908 2.53679 11.908 2.53663C11.908 2.53647 11.908 2.53631 11.908 2.53615C11.908 2.53598 11.908 2.53582 11.908 2.53566C11.908 2.5355 11.908 2.53534 11.908 2.53518C11.908 2.53502 11.908 2.53485 11.908 2.53469C11.908 2.53453 11.908 2.53437 11.908 2.53421C11.908 2.53405 11.908 2.53389 11.908 2.53373C11.908 2.53357 11.908 2.53341 11.908 2.53325C11.908 2.53309 11.908 2.53292 11.908 2.53276C11.908 2.5326 11.908 2.53244 11.908 2.53228C11.908 2.53212 11.908 2.53196 11.908 2.5318C11.908 2.53164 11.908 2.53148 11.908 2.53132C11.908 2.53116 11.908 2.531 11.908 2.53084C11.908 2.53068 11.908 2.53052 11.908 2.53037C11.908 2.53021 11.908 2.53005 11.908 2.52989C11.908 2.52973 11.908 2.52957 11.908 2.52941C11.908 2.52925 11.908 2.52909 11.908 2.52893C11.908 2.52877 11.908 2.52861 11.908 2.52846C11.908 2.5283 11.908 2.52814 11.908 2.52798C11.908 2.52782 11.908 2.52766 11.908 2.5275C11.908 2.52735 11.908 2.52719 11.908 2.52703C11.908 2.52687 11.908 2.52671 11.908 2.52656C11.908 2.5264 11.908 2.52624 11.908 2.52608C11.908 2.52592 11.908 2.52577 11.908 2.52561C11.908 2.52545 11.908 2.52529 11.908 2.52514C11.908 2.52498 11.908 2.52482 11.908 2.52466C11.908 2.52451 11.908 2.52435 11.908 2.52419C11.908 2.52403 11.908 2.52388 11.908 2.52372C11.908 2.52356 11.908 2.52341 11.908 2.52325C11.908 2.52309 11.908 2.52294 11.908 2.52278C11.908 2.52262 11.908 2.52247 11.908 2.52231C11.908 2.52215 11.908 2.522 11.908 2.52184C11.908 2.52169 11.908 2.52153 11.908 2.52137C11.908 2.52122 11.908 2.52106 11.908 2.52091C11.908 2.52075 11.908 2.52059 11.908 2.52044C11.908 2.52028 11.908 2.52013 11.908 2.51997C11.908 2.51982 11.908 2.51966 11.908 2.51951C11.908 2.51935 11.908 2.5192 11.908 2.51904C11.908 2.51889 11.908 2.51873 11.908 2.51858C11.908 2.51842 11.908 2.51827 11.908 2.51811C11.908 2.51796 11.908 2.5178 11.908 2.51765C11.908 2.51749 11.908 2.51734 11.908 2.51718C11.908 2.51703 11.908 2.51688 11.908 2.51672C11.908 2.51657 11.908 2.51641 11.908 2.51626C11.908 2.5161 11.908 2.51595 11.908 2.5158C11.908 2.51564 11.908 2.51549 11.908 2.51534C11.908 2.51518 11.908 2.51503 11.908 2.51488C11.908 2.51472 11.908 2.51457 11.908 2.51442C11.908 2.51426 11.908 2.51411 11.908 2.51396C11.908 2.5138 11.908 2.51365 11.908 2.5135C11.908 2.51334 11.908 2.51319 11.908 2.51304C11.908 2.51289 11.908 2.51273 11.908 2.51258C11.908 2.51243 11.908 2.51228 11.908 2.51212C11.908 2.51197 11.908 2.51182 11.908 2.51167C11.908 2.51151 11.908 2.51136 11.908 2.51121C11.908 2.51106 11.908 2.51091 11.908 2.51075C11.908 2.5106 11.908 2.51045 11.908 2.5103C11.908 2.51015 11.908 2.51 11.908 2.50984C11.908 2.50969 11.908 2.50954 11.908 2.50939C11.908 2.50924 11.908 2.50909 11.908 2.50894C11.908 2.50879 11.908 2.50864 11.908 2.50848C11.908 2.50833 11.908 2.50818 11.908 2.50803C11.908 2.50788 11.908 2.50773 11.908 2.50758C11.908 2.50743 11.908 2.50728 11.908 2.50713C11.908 2.50698 11.908 2.50683 11.908 2.50668C11.908 2.50653 11.908 2.50638 11.908 2.50623C11.908 2.50608 11.908 2.50593 11.908 2.50578C11.908 2.50563 11.908 2.50548 11.908 2.50533C11.908 2.50518 11.908 2.50503 11.908 2.50488C11.908 2.50473 11.908 2.50458 11.908 2.50443C11.908 2.50428 11.908 2.50413 11.908 2.50399C11.908 2.50384 11.908 2.50369 11.908 2.50354C11.908 2.50339 11.908 2.50324 11.908 2.50309C11.908 2.50294 11.908 2.5028 11.908 2.50265C11.908 2.5025 11.908 2.50235 11.908 2.5022C11.908 2.50205 11.908 2.5019 11.908 2.50176C11.908 2.50161 11.908 2.50146 11.908 2.50131C11.908 2.50116 11.908 2.50102 11.908 2.50087C11.908 2.50072 11.908 2.50057 11.908 2.50043C11.908 2.50028 11.908 2.50013 11.908 2.49998C11.908 2.49984 11.908 2.49969 11.908 2.49954C11.908 2.49939 11.908 2.49925 11.908 2.4991C11.908 2.49895 11.908 2.49881 11.908 2.49866C11.908 2.49851 11.908 2.49837 11.908 2.49822C11.908 2.49807 11.908 2.49793 11.908 2.49778C11.908 2.49763 11.908 2.49749 11.908 2.49734C11.908 2.49719 11.908 2.49705 11.908 2.4969C11.908 2.49676 11.908 2.49661 11.908 2.49646C11.908 2.49632 11.908 2.49617 11.908 2.49603C11.908 2.49588 11.908 2.49573 11.908 2.49559C11.908 2.49544 11.908 2.4953 11.908 2.49515C11.908 2.49501 11.908 2.49486 11.908 2.49472C11.908 2.49457 11.908 2.49443 11.908 2.49428C11.908 2.49414 11.908 2.49399 11.908 2.49385C11.908 2.4937 11.908 2.49356 11.908 2.49341C11.908 2.49327 11.908 2.49312 11.908 2.49298C11.908 2.49283 11.908 2.49269 11.908 2.49255C11.908 2.4924 11.908 2.49226 11.908 2.49211C11.908 2.49197 11.908 2.49182 11.908 2.49168C11.908 2.49154 11.908 2.49139 11.908 2.49125C11.908 2.49111 11.908 2.49096 11.908 2.49082C11.908 2.49067 11.908 2.49053 11.908 2.49039C11.908 2.49024 11.908 2.4901 11.908 2.48996C11.908 2.48981 11.908 2.48967 11.908 2.48953C11.908 2.48939 11.908 2.48924 11.908 2.4891C11.908 2.48896 11.908 2.48881 11.908 2.48867C11.908 2.48853 11.908 2.48839 11.908 2.48824C11.908 2.4881 11.908 2.48796 11.908 2.48782C11.908 2.48767 11.908 2.48753 11.908 2.48739C11.908 2.48725 11.908 2.48711 11.908 2.48696C11.908 2.48682 11.908 2.48668 11.908 2.48654C11.908 2.4864 11.908 2.48626 11.908 2.48611C11.908 2.48597 11.908 2.48583 11.908 2.48569C11.908 2.48555 11.908 2.48541 11.908 2.48527C11.908 2.48512 11.908 2.48498 11.908 2.48484C11.908 2.4847 11.908 2.48456 11.908 2.48442C11.908 2.48428 11.908 2.48414 11.908 2.484H10.908ZM10.908 2.772L9.90912 2.72471C9.72235 6.67012 8.79697 11.3957 7.10778 16.9154L8.064 17.208L9.02022 17.5006C10.739 11.8843 11.7096 6.98588 11.9069 2.81928L10.908 2.772ZM8.064 17.208L7.16957 16.7608C7.11775 16.8644 7.07668 16.9717 7.04332 17.0718L7.992 17.388L8.94068 17.7042C8.94753 17.6837 8.95287 17.6694 8.95648 17.6604C8.96018 17.6511 8.96102 17.65 8.95843 17.6552L8.064 17.208ZM7.992 17.388L7.03474 17.0988C6.03292 20.4143 5.07262 23.1498 4.15531 25.3137L5.076 25.704L5.99669 26.0943C6.95138 23.8422 7.93508 21.0337 8.94926 17.6772L7.992 17.388ZM5.076 25.704L4.12732 25.3878C4.09587 25.4821 4.07138 25.5475 4.05392 25.5894C4.04536 25.6099 4.04061 25.6197 4.03982 25.6213C4.03822 25.6245 4.04596 25.6083 4.06395 25.5813L4.896 26.136L5.72805 26.6907C5.86011 26.4926 5.95585 26.2267 6.02468 26.0202L5.076 25.704ZM4.896 26.136L4.04574 25.6096C3.86004 25.9096 3.52514 26.2174 2.94925 26.4954L3.384 27.396L3.81875 28.2966C4.63486 27.9026 5.30796 27.3704 5.74627 26.6624L4.896 26.136ZM3.384 27.396L2.93679 26.5016C2.5163 26.7118 2.16515 26.792 1.872 26.792V27.792V28.792C2.53885 28.792 3.1957 28.6082 3.83121 28.2904L3.384 27.396ZM1.872 27.792V26.792C1.83525 26.792 1.836 26.7882 1.86254 26.7949C1.89012 26.8018 1.95934 26.8235 2.04 26.884L1.44 27.684L0.84 28.484C1.1854 28.743 1.58384 28.792 1.872 28.792V27.792ZM1.44 27.684L1.97 26.836C1.97451 26.8388 2.02602 26.8722 2.07566 26.9529C2.12943 27.0403 2.152 27.1363 2.152 27.216H1.152H0.152C0.152 27.8194 0.486911 28.2676 0.910001 28.532L1.44 27.684ZM1.152 27.216H2.152C2.152 27.3012 2.13947 27.3597 2.13877 27.3632C2.13615 27.3763 2.13518 27.378 2.1392 27.3637C2.14721 27.3353 2.16387 27.2827 2.19343 27.1994C2.25186 27.0347 2.3442 26.7961 2.47409 26.4773L1.548 26.1L0.621908 25.7227C0.487802 26.0519 0.382144 26.3233 0.308572 26.5306C0.272127 26.6333 0.239286 26.7322 0.2143 26.8208C0.199518 26.8732 0.152 27.0371 0.152 27.216H1.152ZM1.548 26.1L2.48288 26.455C4.19966 21.9333 5.59201 17.5273 6.65846 13.2372L5.688 12.996L4.71754 12.7548C3.67199 16.9607 2.30434 21.2907 0.613117 25.745L1.548 26.1ZM5.688 12.996L6.66108 13.2265C7.10025 11.3722 7.45393 9.4939 7.7222 7.59164L6.732 7.452L5.7418 7.31235C5.48207 9.15409 5.13976 10.9718 4.71492 12.7655L5.688 12.996ZM6.732 7.452L7.72548 7.566C7.80975 6.83166 7.86828 6.26949 7.89966 5.88669C7.91505 5.69896 7.92556 5.5351 7.92762 5.40964C7.92853 5.35398 7.92876 5.26641 7.91842 5.1763C7.91443 5.14154 7.90181 5.03476 7.85543 4.91177C7.83317 4.85272 7.77819 4.72084 7.65887 4.58851C7.52516 4.4402 7.27211 4.256 6.912 4.256V5.256V6.256C6.55489 6.256 6.30463 6.07322 6.1735 5.92778C6.05676 5.79831 6.00415 5.67071 5.98404 5.61738C5.94198 5.50583 5.93282 5.41621 5.93146 5.40432C5.92637 5.35996 5.92847 5.34102 5.92788 5.37686C5.92694 5.4344 5.92095 5.54504 5.90634 5.72331C5.87772 6.0725 5.82225 6.60834 5.73852 7.33799L6.732 7.452ZM6.912 5.256H7.912C7.912 5.04067 7.84081 4.77729 7.63432 4.55993C7.44657 4.3623 7.23124 4.29229 7.10731 4.2662C6.88654 4.21972 6.70446 4.25977 6.66324 4.26845C6.53536 4.29537 6.41851 4.34276 6.35294 4.37036C6.19722 4.43593 5.99464 4.53677 5.76225 4.65908L6.228 5.544L6.69375 6.42892C6.91736 6.31123 7.05678 6.24407 7.12906 6.21363C7.17749 6.19324 7.14614 6.21063 7.07526 6.22555C7.06254 6.22823 6.90184 6.26678 6.69531 6.2233C6.57851 6.19871 6.36852 6.13132 6.18434 5.93744C5.98141 5.72384 5.912 5.46533 5.912 5.256H6.912ZM6.228 5.544L5.79325 4.64345C5.12895 4.96414 4.72082 5.07352 4.51328 5.08572L4.572 6.084L4.63072 7.08227C5.23918 7.04648 5.93505 6.79585 6.66275 6.44455L6.228 5.544ZM4.572 6.084V5.084C4.53651 5.084 4.51072 5.08265 4.49339 5.08112C4.47578 5.07957 4.47066 5.07815 4.47553 5.0792C4.48003 5.08016 4.50068 5.08483 4.53214 5.0977C4.56363 5.11059 4.61249 5.13437 4.668 5.176L4.068 5.976L3.468 6.776C3.84063 7.05547 4.29662 7.084 4.572 7.084V6.084ZM4.068 5.976L4.47413 5.06218C4.51114 5.07863 4.59655 5.12893 4.66618 5.23724C4.73516 5.34454 4.744 5.43933 4.744 5.472H3.744H2.744C2.744 5.74466 2.80685 6.04346 2.98382 6.31876C3.16145 6.59507 3.40886 6.77737 3.66187 6.88981L4.068 5.976ZM3.744 5.472H4.744C4.744 5.53667 4.71428 5.50404 4.83456 5.35627C4.95599 5.20708 5.17968 5.00515 5.55318 4.7597L5.004 3.924L4.45482 3.08829C3.98833 3.39485 3.58201 3.72691 3.28344 4.09373C2.98372 4.46196 2.744 4.92732 2.744 5.472H3.744ZM5.004 3.924L5.58524 4.73773C5.9932 4.44633 7.20042 3.82772 9.3418 2.85436L8.928 1.944L8.5142 1.03363C6.43158 1.98027 5.0228 2.68167 4.42276 3.11027L5.004 3.924ZM8.928 1.944L9.41364 2.81816C9.46109 2.79179 9.5009 2.77042 9.53367 2.75347C9.56698 2.73624 9.58945 2.72543 9.6028 2.71937C9.60923 2.71644 9.61153 2.71554 9.61027 2.71605C9.60937 2.71642 9.60167 2.71954 9.58848 2.72393C9.57641 2.72796 9.55051 2.73616 9.51449 2.74399C9.4959 2.74803 9.47106 2.75275 9.44118 2.75658C9.41179 2.76035 9.37182 2.764 9.324 2.764V1.764V0.763999C9.14448 0.763999 9.0012 0.811506 8.95602 0.826565C8.88791 0.84927 8.82531 0.875856 8.7752 0.898632C8.6737 0.944768 8.55999 1.00449 8.44236 1.06984L8.928 1.944ZM9.324 1.764L9.61135 2.72182C9.72872 2.68661 9.81229 2.66244 9.86612 2.64776C9.87908 2.64423 9.88908 2.64158 9.89648 2.63968C9.90417 2.6377 9.9072 2.637 9.90661 2.63714C9.90619 2.63724 9.90386 2.63777 9.89997 2.63859C9.8963 2.63935 9.88927 2.64078 9.87973 2.64247C9.8709 2.64403 9.8546 2.64675 9.83338 2.6493C9.82246 2.65061 9.80783 2.65216 9.79041 2.65344C9.77352 2.65467 9.7493 2.656 9.72 2.656V1.656V0.655998C9.62366 0.655998 9.54585 0.670484 9.53215 0.672902C9.50211 0.678204 9.47553 0.684056 9.45689 0.688357C9.41874 0.697161 9.37806 0.707824 9.33988 0.718235C9.26171 0.739553 9.15928 0.769384 9.03665 0.806173L9.324 1.764ZM23.184 1.656V2.656H24.552V1.656V0.655998H23.184V1.656ZM24.552 1.656L24.2889 2.62076C24.4259 2.65813 24.6042 2.73662 24.8253 2.88405L25.38 2.052L25.9347 1.21995C25.5798 0.983379 25.2061 0.797866 24.8151 0.691235L24.552 1.656ZM25.38 2.052L24.8045 2.86981C25.1865 3.13862 25.352 3.45762 25.352 3.924H26.352H27.352C27.352 2.80638 26.8695 1.87738 25.9555 1.23419L25.38 2.052ZM26.352 3.924H25.352C25.352 4.30974 25.2442 4.51763 25.1049 4.65689L25.812 5.364L26.5191 6.07111C27.0998 5.49037 27.352 4.73826 27.352 3.924H26.352ZM25.812 5.364L25.1535 4.61142C25.0288 4.7205 24.8845 4.81769 24.7168 4.90157L25.164 5.796L25.6112 6.69043C25.9235 6.5343 26.2112 6.34349 26.4705 6.11658L25.812 5.364ZM25.164 5.796L24.7168 4.90157C24.4451 5.0374 24.2256 5.084 24.048 5.084V6.084V7.084C24.5904 7.084 25.1149 6.9386 25.6112 6.69043L25.164 5.796ZM24.048 6.084V5.084C24.0601 5.084 24.09 5.0859 24.1302 5.09932C24.1716 5.11309 24.2097 5.13437 24.2407 5.15913L23.616 5.94L22.9913 6.72087C23.3055 6.9722 23.6755 7.084 24.048 7.084V6.084ZM23.616 5.94L24.1707 5.10795C24.2092 5.13362 24.2415 5.16468 24.266 5.19644C24.2898 5.22728 24.3007 5.25149 24.3042 5.2606C24.3075 5.26895 24.3041 5.26307 24.3 5.23729C24.2959 5.21151 24.292 5.17072 24.292 5.112H23.292H22.292C22.292 5.65592 22.4349 6.35446 23.0613 6.77205L23.616 5.94ZM23.292 5.112H24.292C24.292 4.80307 24.2755 4.41025 24.1485 4.09261L23.22 4.464L22.2915 4.83539C22.277 4.79906 22.2729 4.77796 22.2737 4.78152C22.2741 4.78356 22.2769 4.79745 22.2801 4.82643C22.2867 4.88579 22.292 4.97848 22.292 5.112H23.292ZM23.22 4.464L24.0882 3.96786C23.7738 3.41765 23.194 3.21457 22.7815 3.1262L22.572 4.104L22.3625 5.0818C22.413 5.09262 22.449 5.10315 22.473 5.1115C22.4972 5.11992 22.5047 5.12458 22.5004 5.12216C22.4923 5.11767 22.4163 5.07304 22.3518 4.96014L23.22 4.464ZM22.572 4.104L22.8882 3.15531C22.4591 3.01228 22.0395 3.08341 21.7158 3.19131L22.032 4.14L22.3482 5.08868C22.3955 5.07293 22.4093 5.07387 22.3955 5.07478C22.3799 5.07582 22.3278 5.07671 22.2558 5.05268L22.572 4.104ZM22.032 4.14L21.7379 3.18422C20.6504 3.51883 19.2997 4.27535 17.7188 5.36981L18.288 6.192L18.8572 7.01419C20.3963 5.94864 21.5416 5.33717 22.3261 5.09578L22.032 4.14ZM18.288 6.192L17.7427 5.35374C15.2352 6.98486 13.3728 8.53417 12.2389 10.011L13.032 10.62L13.8252 11.229C14.7552 10.0178 16.3968 8.61514 18.8333 7.03026L18.288 6.192ZM13.032 10.62L12.2269 10.0268C11.7962 10.6114 11.5251 11.2798 11.5655 12.0075L12.564 11.952L13.5625 11.8965C13.5549 11.7602 13.5958 11.5406 13.8371 11.2132L13.032 10.62ZM12.564 11.952H11.564C11.564 12.1236 11.5847 12.303 11.6136 12.4764L12.6 12.312L13.5864 12.1476C13.5673 12.033 13.564 11.9724 13.564 11.952H12.564ZM12.6 12.312L11.6085 12.4422C11.9403 14.9686 12.9379 17.8402 14.5509 21.0419L15.444 20.592L16.3371 20.1421C14.7821 17.0558 13.8837 14.4074 13.5915 12.1818L12.6 12.312ZM15.444 20.592L14.5531 21.0462C15.1922 22.2999 15.8189 23.3566 16.4353 24.2042L17.244 23.616L18.0527 23.0278C17.5171 22.2914 16.9438 21.3321 16.3349 20.1378L15.444 20.592ZM17.244 23.616L16.4514 24.2257C16.9639 24.892 17.4853 25.4375 18.0205 25.8122C18.5558 26.1869 19.1828 26.4431 19.8635 26.375L19.764 25.38L19.6645 24.385C19.6252 24.3889 19.4722 24.3871 19.1675 24.1738C18.8627 23.9605 18.4841 23.588 18.0366 23.0063L17.244 23.616ZM19.764 25.38L19.8687 26.3745C21.905 26.1602 23.487 25.3046 24.1233 23.5632L23.184 23.22L22.2447 22.8768C21.969 23.6314 21.271 24.2158 19.6593 24.3855L19.764 25.38ZM23.184 23.22L24.1584 23.4449C24.1757 23.3697 24.2276 23.251 24.3997 23.0932L23.724 22.356L23.0483 21.6188C22.6445 21.989 22.3363 22.4463 22.2096 22.9951L23.184 23.22ZM23.724 22.356L24.3949 23.0975C24.7329 22.7918 25.0629 22.672 25.416 22.672V21.672V20.672C24.5211 20.672 23.7231 21.0082 23.0531 21.6145L23.724 22.356ZM25.416 21.672V22.672C25.4294 22.672 25.4153 22.6737 25.3829 22.6638C25.3482 22.6531 25.3035 22.6322 25.2593 22.5969L25.884 21.816L26.5087 21.0351C26.1709 20.7649 25.7771 20.672 25.416 20.672V21.672ZM25.884 21.816L25.3293 22.6481C25.3295 22.6482 25.2913 22.6221 25.2554 22.5583C25.2178 22.4914 25.208 22.4279 25.208 22.392H26.208H27.208C27.208 21.7865 26.906 21.2955 26.4387 20.9839L25.884 21.816ZM26.208 22.392H25.208C25.208 22.5156 25.1125 22.8934 24.6477 23.6139L25.488 24.156L26.3283 24.6981C26.8235 23.9306 27.208 23.1324 27.208 22.392H26.208ZM25.488 24.156L24.6559 23.6013C23.8409 24.8238 22.5891 25.7482 20.8158 26.3393L21.132 27.288L21.4482 28.2367C23.5629 27.5318 25.2151 26.3682 26.3201 24.7107L25.488 24.156ZM21.132 27.288L20.8158 26.3393C19.9738 26.62 19.1121 26.7707 18.2276 26.7923L18.252 27.792L18.2764 28.7917C19.3599 28.7653 20.4182 28.58 21.4482 28.2367L21.132 27.288ZM18.252 27.792V26.792C17.6187 26.792 17.2831 26.6822 17.126 26.584L16.596 27.432L16.066 28.28C16.6769 28.6618 17.4453 28.792 18.252 28.792V27.792ZM16.596 27.432L17.196 26.632C17.0684 26.5363 16.9313 26.4454 16.7865 26.3585L16.272 27.216L15.7575 28.0735C15.8527 28.1306 15.9316 28.1837 15.996 28.232L16.596 27.432ZM16.272 27.216L16.8372 26.3911C15.7652 25.6565 14.5746 24.0797 13.3224 21.4571L12.42 21.888L11.5176 22.3189C12.8094 25.0243 14.1868 26.9995 15.7068 28.0409L16.272 27.216ZM12.42 21.888L13.3144 21.4408C12.263 19.338 11.4603 17.2302 10.9029 15.117L9.936 15.372L8.96906 15.627C9.56373 17.8818 10.417 20.118 11.5256 22.3352L12.42 21.888ZM9.936 15.372L10.9069 15.1324C10.688 14.2453 10.5739 13.528 10.5479 12.9678C10.5214 12.3941 10.5915 12.0637 10.6674 11.8956L9.756 11.484L8.84463 11.0724C8.58455 11.6483 8.51663 12.3379 8.55007 13.0602C8.58413 13.796 8.72801 14.6507 8.96512 15.6116L9.936 15.372ZM9.756 11.484L10.6845 11.8554C10.9022 11.311 11.3968 10.593 12.2655 9.6955C13.1234 8.80923 14.295 7.79959 15.795 6.66573L15.192 5.868L14.589 5.07027C13.041 6.2404 11.7826 7.31877 10.8285 8.3045C9.88519 9.27901 9.18576 10.217 8.82752 11.1126L9.756 11.484ZM15.192 5.868L15.7882 6.67082C19.0364 4.2586 21.4609 2.98918 23.1185 2.67445L22.932 1.692L22.7455 0.709552C20.6111 1.11482 17.8756 2.6294 14.5958 5.06517L15.192 5.868ZM22.932 1.692L23.1745 2.66214C23.1945 2.65714 23.2055 2.65537 23.2084 2.65495C23.2116 2.65449 23.2028 2.656 23.184 2.656V1.656V0.655998C23.0062 0.655998 22.8375 0.684849 22.6895 0.72186L22.932 1.692ZM42.9019 1.656L42.9786 2.65305L43.1739 2.63803L43.3491 2.55043L42.9019 1.656ZM43.8739 1.62L43.9173 0.620942L43.8956 0.619998H43.8739V1.62ZM44.9179 1.728L44.6016 2.67668L44.6307 2.68635L44.6602 2.69423L44.9179 1.728ZM46.3219 2.808L45.3963 3.18663L45.4228 3.25141L45.4581 3.31187L46.3219 2.808ZM46.6099 3.888L47.6091 3.84957L47.6088 3.84104L47.6083 3.83253L46.6099 3.888ZM46.1059 6.228L45.1725 5.86902L45.1674 5.88248L45.1626 5.89609L46.1059 6.228ZM44.5579 9.54L45.3982 10.0822L45.4034 10.074L44.5579 9.54ZM42.2899 11.088L42.553 12.0528L42.5587 12.0512L42.2899 11.088ZM41.1379 11.088L41.7379 10.288L41.7039 10.2625L41.6679 10.24L41.1379 11.088ZM41.2459 9.612L40.3563 9.15519L40.3498 9.16778L40.3437 9.18054L41.2459 9.612ZM42.3259 7.308L43.252 7.6853L43.2643 7.65513L43.2746 7.62423L42.3259 7.308ZM42.4339 4.824L41.6339 5.424L41.6534 5.45006L41.6746 5.47479L42.4339 4.824ZM42.0739 4.572L42.4678 3.65285L42.4189 3.63188L42.368 3.61622L42.0739 4.572ZM40.7059 4.464L40.6659 3.4648L40.6406 3.46581L40.6153 3.46811L40.7059 4.464ZM37.4299 5.472L36.8915 4.6293L36.871 4.64241L36.8511 4.65649L37.4299 5.472ZM35.4139 7.38L34.6355 6.75224L34.632 6.75659L35.4139 7.38ZM32.3179 14.076L33.2888 14.3156L33.29 14.3104L32.3179 14.076ZM32.9659 22.788L33.8139 22.258L33.8095 22.2511L32.9659 22.788ZM34.2979 24.192L34.9135 23.404L34.888 23.384L34.8612 23.3658L34.2979 24.192ZM37.6459 25.056L37.5354 24.0621L37.4923 24.0669L37.4498 24.0754L37.6459 25.056ZM41.4619 22.536L40.6426 21.9625L40.6359 21.9723L41.4619 22.536ZM42.5779 21.384L42.0101 20.5607L42.0012 20.567L42.5779 21.384ZM45.2419 20.988L44.3677 21.4736L44.3874 21.509L44.4098 21.5427L45.2419 20.988ZM45.2419 21.636L46.1363 22.0832L46.1681 22.0196L46.1906 21.9522L45.2419 21.636ZM44.3419 22.968L45.1185 23.5979L45.1358 23.5767L45.1518 23.5545L44.3419 22.968ZM37.7179 27.432L37.425 26.4758L37.4147 26.4791L37.7179 27.432ZM36.1339 27.792L35.9988 26.8012L35.9794 26.8038L35.9601 26.8072L36.1339 27.792ZM33.8299 27.864L33.962 26.8728L33.9457 26.8706L33.9294 26.869L33.8299 27.864ZM31.6339 27.216L31.1866 28.1105L31.1983 28.1162L31.6339 27.216ZM29.1499 24.984L29.998 24.454L29.9906 24.4425L29.1499 24.984ZM27.8539 19.368L28.8537 19.3886L28.8537 19.3872L27.8539 19.368ZM28.4299 15.336L29.4 15.5785L29.4 15.5785L28.4299 15.336ZM33.7939 5.76L34.4693 6.49744L34.48 6.48759L34.4905 6.47743L33.7939 5.76ZM39.5899 2.304L39.8905 3.25774L39.9054 3.25303L39.9202 3.24786L39.5899 2.304ZM42.9019 1.656L43.3491 2.55043C43.2691 2.5904 43.203 2.60938 43.1772 2.6164C43.1453 2.62511 43.121 2.62977 43.1095 2.63183C43.0869 2.63588 43.0763 2.63653 43.0859 2.6356C43.1035 2.6339 43.1446 2.63103 43.2179 2.62831C43.3613 2.623 43.5778 2.62 43.8739 2.62V1.62V0.619998C43.57 0.619998 43.3245 0.622995 43.1439 0.629683C43.0551 0.632969 42.9687 0.6376 42.8933 0.644898C42.8565 0.648464 42.8079 0.653995 42.7562 0.663289C42.7332 0.667413 42.5992 0.689298 42.4547 0.761568L42.9019 1.656ZM43.8739 1.62L43.8304 2.61905C44.0965 2.63062 44.2996 2.64455 44.446 2.65969C44.519 2.66725 44.5702 2.67433 44.6033 2.67998C44.6422 2.68662 44.6347 2.6877 44.6016 2.67668L44.9179 1.728L45.2341 0.779317C45.0487 0.7175 44.8292 0.688659 44.6518 0.670307C44.4501 0.649445 44.2032 0.633374 43.9173 0.620942L43.8739 1.62ZM44.9179 1.728L44.6602 2.69423C45.1788 2.83254 45.3334 3.03284 45.3963 3.18663L46.3219 2.808L47.2474 2.42936C46.8783 1.52716 46.0969 1.00746 45.1755 0.761764L44.9179 1.728ZM46.3219 2.808L45.4581 3.31187C45.5262 3.42862 45.5937 3.62403 45.6114 3.94347L46.6099 3.888L47.6083 3.83253C47.5781 3.28797 47.4535 2.76338 47.1857 2.30413L46.3219 2.808ZM46.6099 3.888L45.6106 3.92643C45.6272 4.35744 45.5099 4.99192 45.1725 5.86902L46.1059 6.228L47.0392 6.58698C47.4219 5.59208 47.6406 4.66655 47.6091 3.84957L46.6099 3.888ZM46.1059 6.228L45.1626 5.89609C44.7251 7.13952 44.2391 8.17198 43.7124 9.00601L44.5579 9.54L45.4034 10.074C46.0286 9.08402 46.5747 7.90848 47.0492 6.55991L46.1059 6.228ZM44.5579 9.54L43.7176 8.99787C43.3967 9.49518 42.8694 9.88806 42.0211 10.1248L42.2899 11.088L42.5587 12.0512C43.7744 11.7119 44.759 11.0728 45.3982 10.0821L44.5579 9.54ZM42.2899 11.088L42.0268 10.1232C41.8368 10.1751 41.6736 10.196 41.5339 10.196V11.196V12.196C41.8742 12.196 42.215 12.1449 42.553 12.0528L42.2899 11.088ZM41.5339 11.196V10.196C41.4978 10.196 41.6036 10.1873 41.7379 10.288L41.1379 11.088L40.5379 11.888C40.8641 12.1327 41.234 12.196 41.5339 12.196V11.196ZM41.1379 11.088L41.6679 10.24C41.6724 10.2428 41.7239 10.2762 41.7735 10.3569C41.8273 10.4443 41.8499 10.5403 41.8499 10.62H40.8499H39.8499C39.8499 11.2234 40.1848 11.6716 40.6079 11.936L41.1379 11.088ZM40.8499 10.62H41.8499C41.8499 10.6894 41.8411 10.7376 41.8385 10.7512C41.8352 10.7687 41.833 10.7753 41.8352 10.7676C41.8399 10.7512 41.8528 10.712 41.8796 10.6437C41.9329 10.5079 42.0203 10.3104 42.148 10.0435L41.2459 9.612L40.3437 9.18054C40.2074 9.46555 40.0968 9.71206 40.0181 9.91235C39.979 10.012 39.9423 10.1138 39.9141 10.2114C39.8917 10.2887 39.8499 10.4435 39.8499 10.62H40.8499ZM41.2459 9.612L42.1354 10.0688C42.5997 9.16479 42.9734 8.369 43.252 7.6853L42.3259 7.308L41.3998 6.9307C41.1503 7.543 40.8041 8.28321 40.3563 9.15519L41.2459 9.612ZM42.3259 7.308L43.2746 7.62423C43.5024 6.94063 43.6499 6.30426 43.6499 5.76H42.6499H41.6499C41.6499 5.98374 41.5813 6.37936 41.3772 6.99177L42.3259 7.308ZM42.6499 5.76H43.6499C43.6499 5.27728 43.5898 4.63603 43.1931 4.17321L42.4339 4.824L41.6746 5.47479C41.6052 5.39377 41.6067 5.34464 41.6215 5.40886C41.635 5.46734 41.6499 5.57861 41.6499 5.76H42.6499ZM42.4339 4.824L43.2339 4.22399C43.0157 3.93312 42.7193 3.76064 42.4678 3.65285L42.0739 4.572L41.68 5.49114C41.7156 5.50644 41.7245 5.51388 41.7164 5.50823C41.7082 5.50248 41.6735 5.47688 41.6339 5.424L42.4339 4.824ZM42.0739 4.572L42.368 3.61622C41.8923 3.46985 41.3006 3.43941 40.6659 3.4648L40.7059 4.464L40.7458 5.4632C41.3111 5.44059 41.6315 5.48214 41.7798 5.52778L42.0739 4.572ZM40.7059 4.464L40.6153 3.46811C39.1811 3.59849 37.924 3.96963 36.8915 4.6293L37.4299 5.472L37.9683 6.31469C38.6637 5.87037 39.5906 5.56951 40.7964 5.45989L40.7059 4.464ZM37.4299 5.472L36.8511 4.65649C36.0288 5.24009 35.2903 5.94021 34.6355 6.75225L35.4139 7.38L36.1923 8.00775C36.7374 7.33179 37.343 6.7599 38.0086 6.28751L37.4299 5.472ZM35.4139 7.38L34.632 6.75659C33.1073 8.66889 32.0207 11.0419 31.3457 13.8416L32.3179 14.076L33.29 14.3104C33.9111 11.7341 34.8884 9.64311 36.1958 8.00341L35.4139 7.38ZM32.3179 14.076L31.347 13.8364C30.4033 17.661 30.57 20.8857 32.1222 23.3249L32.9659 22.788L33.8095 22.2511C32.6737 20.4663 32.4085 17.883 33.2888 14.3156L32.3179 14.076ZM32.9659 22.788L32.1179 23.318C32.5465 24.0039 33.0851 24.5754 33.7345 25.0182L34.2979 24.192L34.8612 23.3658C34.4547 23.0886 34.1052 22.7241 33.8139 22.258L32.9659 22.788ZM34.2979 24.192L33.6822 24.98C34.6636 25.7467 35.8797 26.092 37.2499 26.092V25.092V24.092C36.2201 24.092 35.4681 23.8373 34.9135 23.404L34.2979 24.192ZM37.2499 25.092V26.092C37.4485 26.092 37.6473 26.0755 37.842 26.0366L37.6459 25.056L37.4498 24.0754C37.4045 24.0845 37.3392 24.092 37.2499 24.092V25.092ZM37.6459 25.056L37.7563 26.0499C39.617 25.8431 41.1281 24.7989 42.2878 23.0997L41.4619 22.536L40.6359 21.9723C39.7317 23.2971 38.6987 23.9329 37.5354 24.0621L37.6459 25.056ZM41.4619 22.536L42.2811 23.1095C42.5621 22.708 42.8556 22.412 43.1546 22.201L42.5779 21.384L42.0012 20.567C41.4841 20.932 41.0336 21.404 40.6426 21.9625L41.4619 22.536ZM42.5779 21.384L43.1456 22.2072C43.711 21.8173 44.2128 21.664 44.6659 21.664V20.664V19.664C43.727 19.664 42.8367 19.9907 42.0101 20.5608L42.5779 21.384ZM44.6659 20.664V21.664C44.6602 21.664 44.5984 21.662 44.5176 21.6166C44.4334 21.5692 44.3863 21.5071 44.3677 21.4736L45.2419 20.988L46.116 20.5024C45.9774 20.2529 45.7744 20.0288 45.4981 19.8734C45.2253 19.72 44.9356 19.664 44.6659 19.664V20.664ZM45.2419 20.988L44.4098 21.5427C44.3239 21.4139 44.3139 21.2983 44.3139 21.258C44.3139 21.2247 44.3199 21.2397 44.2932 21.3198L45.2419 21.636L46.1906 21.9522C46.3134 21.5838 46.4355 20.9756 46.0739 20.4333L45.2419 20.988ZM45.2419 21.636L44.3474 21.1888C44.3475 21.1888 44.3471 21.1895 44.3463 21.191C44.3455 21.1925 44.3444 21.1946 44.3429 21.1973C44.3399 21.203 44.3356 21.2106 44.33 21.2204C44.3185 21.2402 44.303 21.2661 44.2827 21.2987C44.2419 21.3642 44.187 21.4485 44.1163 21.5531C43.9748 21.7625 43.7809 22.0377 43.5319 22.3815L44.3419 22.968L45.1518 23.5545C45.6377 22.8835 45.9955 22.3649 46.1363 22.0832L45.2419 21.636ZM44.3419 22.968L43.5652 22.3381C41.9387 24.3434 39.8993 25.718 37.425 26.4758L37.7179 27.432L38.0108 28.3882C40.8645 27.514 43.241 25.9126 45.1185 23.5979L44.3419 22.968ZM37.7179 27.432L37.4147 26.4791C36.9393 26.6303 36.4675 26.7372 35.9988 26.8012L36.1339 27.792L36.269 28.7828C36.8562 28.7028 37.4404 28.5697 38.0211 28.3849L37.7179 27.432ZM36.1339 27.792L35.9601 26.8072C35.2312 26.9358 34.5672 26.9535 33.962 26.8728L33.8299 27.864L33.6977 28.8552C34.5326 28.9665 35.4046 28.9362 36.3077 28.7768L36.1339 27.792ZM33.8299 27.864L33.9294 26.869C33.3414 26.8102 32.7227 26.6319 32.0694 26.3158L31.6339 27.216L31.1983 28.1162C32.0331 28.5201 32.8783 28.7738 33.7304 28.859L33.8299 27.864ZM31.6339 27.216L32.0811 26.3216C31.1823 25.8722 30.4961 25.2511 29.9979 24.454L29.1499 24.984L28.3019 25.514C29.0037 26.6369 29.9735 27.5038 31.1867 28.1104L31.6339 27.216ZM29.1499 24.984L29.9906 24.4425C29.2204 23.2467 28.8082 21.5913 28.8537 19.3886L27.8539 19.368L26.8541 19.3474C26.8035 21.8007 27.2554 23.8893 28.3092 25.5255L29.1499 24.984ZM27.8539 19.368L28.8537 19.3872C28.876 18.2271 29.055 16.9588 29.4 15.5785L28.4299 15.336L27.4597 15.0935C27.0848 16.5932 26.8798 18.0129 26.8541 19.3488L27.8539 19.368ZM28.4299 15.336L29.4 15.5785C30.3698 11.6994 32.072 8.69311 34.4693 6.49744L33.7939 5.76L33.1185 5.02256C30.3798 7.53089 28.506 10.9086 27.4597 15.0935L28.4299 15.336ZM33.7939 5.76L34.4905 6.47743C36.0344 4.97831 37.8307 3.90704 39.8905 3.25774L39.5899 2.304L39.2892 1.35026C36.9331 2.09296 34.8654 3.32569 33.0972 5.04257L33.7939 5.76ZM39.5899 2.304L39.9202 3.24786C40.7821 2.94621 41.798 2.74386 42.9786 2.65305L42.9019 1.656L42.8252 0.658944C41.5097 0.760132 40.3177 0.989788 39.2595 1.36014L39.5899 2.304Z" fill="black" mask="url(#path-1-outside-1_2_2)"/>
</svg>
